  0
SECTION
  2
HEADER
  9
$ACADVER
  1
AC1015
  9
$ACADMAINTVER
 70
     6
  9
$DWGCODEPAGE
  3
ANSI_1252
  9
$INSBASE
 10
0.0
 20
0.0
 30
0.0
  9
$EXTMIN
 10
-117.20325
 20
-56.4263733102
 30
0.0
  9
$EXTMAX
 10
113.63125
 20
47.075
 30
0.0
  9
$LIMMIN
 10
0.0
 20
0.0
  9
$LIMMAX
 10
420.0
 20
297.0
  9
$ORTHOMODE
 70
     0
  9
$REGENMODE
 70
     1
  9
$FILLMODE
 70
     1
  9
$QTEXTMODE
 70
     0
  9
$MIRRTEXT
 70
     1
  9
$LTSCALE
 40
1.0
  9
$ATTMODE
 70
     1
  9
$TEXTSIZE
 40
3.5
  9
$TRACEWID
 40
1.0
  9
$TEXTSTYLE
  7
Standard
  9
$CLAYER
  8
0
  9
$CELTYPE
  6
ByLayer
  9
$CECOLOR
 62
   256
  9
$CELTSCALE
 40
1.0
  9
$DISPSILH
 70
     0
  9
$DIMSCALE
 40
1.0
  9
$DIMASZ
 40
3.302
  9
$DIMEXO
 40
0.0
  9
$DIMDLI
 40
3.75
  9
$DIMRND
 40
0.0
  9
$DIMDLE
 40
0.0
  9
$DIMEXE
 40
1.0
  9
$DIMTP
 40
0.0
  9
$DIMTM
 40
0.0
  9
$DIMTXT
 40
3.5
  9
$DIMCEN
 40
2.5
  9
$DIMTSZ
 40
0.0
  9
$DIMTOL
 70
     0
  9
$DIMLIM
 70
     0
  9
$DIMTIH
 70
     1
  9
$DIMTOH
 70
     1
  9
$DIMSE1
 70
     0
  9
$DIMSE2
 70
     0
  9
$DIMTAD
 70
     1
  9
$DIMZIN
 70
     1
  9
$DIMBLK
  1

  9
$DIMASO
 70
     1
  9
$DIMSHO
 70
     1
  9
$DIMPOST
  1

  9
$DIMAPOST
  1

  9
$DIMALT
 70
     0
  9
$DIMALTD
 70
     3
  9
$DIMALTF
 40
0.0393700787
  9
$DIMLFAC
 40
1.0
  9
$DIMTOFL
 70
     1
  9
$DIMTVP
 40
0.0
  9
$DIMTIX
 70
     0
  9
$DIMSOXD
 70
     0
  9
$DIMSAH
 70
     0
  9
$DIMBLK1
  1

  9
$DIMBLK2
  1

  9
$DIMSTYLE
  2
ISO-25
  9
$DIMCLRD
 70
     0
  9
$DIMCLRE
 70
     0
  9
$DIMCLRT
 70
     0
  9
$DIMTFAC
 40
1.0
  9
$DIMGAP
 40
1.524
  9
$DIMJUST
 70
     0
  9
$DIMSD1
 70
     0
  9
$DIMSD2
 70
     0
  9
$DIMTOLJ
 70
     0
  9
$DIMTZIN
 70
     1
  9
$DIMALTZ
 70
     0
  9
$DIMALTTZ
 70
     0
  9
$DIMUPT
 70
     0
  9
$DIMDEC
 70
     2
  9
$DIMTDEC
 70
     2
  9
$DIMALTU
 70
     2
  9
$DIMALTTD
 70
     3
  9
$DIMTXSTY
  7
Standard
  9
$DIMAUNIT
 70
     0
  9
$DIMADEC
 70
     2
  9
$DIMALTRND
 40
0.0
  9
$DIMAZIN
 70
     0
  9
$DIMDSEP
 70
    44
  9
$DIMATFIT
 70
     3
  9
$DIMFRAC
 70
     0
  9
$DIMLDRBLK
  1

  9
$DIMLUNIT
 70
     2
  9
$DIMLWD
 70
    -2
  9
$DIMLWE
 70
    -2
  9
$DIMTMOVE
 70
     0
  9
$LUNITS
 70
     2
  9
$LUPREC
 70
     3
  9
$SKETCHINC
 40
1.0
  9
$FILLETRAD
 40
10.0
  9
$AUNITS
 70
     0
  9
$AUPREC
 70
     2
  9
$MENU
  1
.
  9
$ELEVATION
 40
0.0
  9
$PELEVATION
 40
0.0
  9
$THICKNESS
 40
0.0
  9
$LIMCHECK
 70
     0
  9
$CHAMFERA
 40
0.0
  9
$CHAMFERB
 40
0.0
  9
$CHAMFERC
 40
0.0
  9
$CHAMFERD
 40
0.0
  9
$SKPOLY
 70
     0
  9
$TDCREATE
 40
2459538.459297083
  9
$TDUCREATE
 40
2459538.667630417
  9
$TDUPDATE
 40
2459538.459414306
  9
$TDUUPDATE
 40
2459538.667747639
  9
$TDINDWG
 40
0.0000000116
  9
$TDUSRTIMER
 40
0.0000000116
  9
$USRTIMER
 70
     1
  9
$ANGBASE
 50
0.0
  9
$ANGDIR
 70
     0
  9
$PDMODE
 70
     0
  9
$PDSIZE
 40
-1.0
  9
$PLINEWID
 40
0.0
  9
$SPLFRAME
 70
     0
  9
$SPLINETYPE
 70
     6
  9
$SPLINESEGS
 70
     8
  9
$HANDSEED
  5
1F2
  9
$SURFTAB1
 70
     6
  9
$SURFTAB2
 70
     6
  9
$SURFTYPE
 70
     6
  9
$SURFU
 70
     6
  9
$SURFV
 70
     6
  9
$UCSBASE
  2

  9
$UCSNAME
  2

  9
$UCSORG
 10
0.0
 20
0.0
 30
0.0
  9
$UCSXDIR
 10
1.0
 20
0.0
 30
0.0
  9
$UCSYDIR
 10
0.0
 20
1.0
 30
0.0
  9
$UCSORTHOREF
  2

  9
$UCSORTHOVIEW
 70
     0
  9
$UCSORGTOP
 10
0.0
 20
0.0
 30
0.0
  9
$UCSORGBOTTOM
 10
0.0
 20
0.0
 30
0.0
  9
$UCSORGLEFT
 10
0.0
 20
0.0
 30
0.0
  9
$UCSORGRIGHT
 10
0.0
 20
0.0
 30
0.0
  9
$UCSORGFRONT
 10
0.0
 20
0.0
 30
0.0
  9
$UCSORGBACK
 10
0.0
 20
0.0
 30
0.0
  9
$PUCSBASE
  2

  9
$PUCSNAME
  2

  9
$PUCSORG
 10
0.0
 20
0.0
 30
0.0
  9
$PUCSXDIR
 10
1.0
 20
0.0
 30
0.0
  9
$PUCSYDIR
 10
0.0
 20
1.0
 30
0.0
  9
$PUCSORTHOREF
  2

  9
$PUCSORTHOVIEW
 70
     0
  9
$PUCSORGTOP
 10
0.0
 20
0.0
 30
0.0
  9
$PUCSORGBOTTOM
 10
0.0
 20
0.0
 30
0.0
  9
$PUCSORGLEFT
 10
0.0
 20
0.0
 30
0.0
  9
$PUCSORGRIGHT
 10
0.0
 20
0.0
 30
0.0
  9
$PUCSORGFRONT
 10
0.0
 20
0.0
 30
0.0
  9
$PUCSORGBACK
 10
0.0
 20
0.0
 30
0.0
  9
$USERI1
 70
     0
  9
$USERI2
 70
     0
  9
$USERI3
 70
     0
  9
$USERI4
 70
     0
  9
$USERI5
 70
     0
  9
$USERR1
 40
0.0
  9
$USERR2
 40
0.0
  9
$USERR3
 40
0.0
  9
$USERR4
 40
0.0
  9
$USERR5
 40
0.0
  9
$WORLDVIEW
 70
     1
  9
$SHADEDGE
 70
     3
  9
$SHADEDIF
 70
    70
  9
$TILEMODE
 70
     1
  9
$MAXACTVP
 70
    64
  9
$PINSBASE
 10
0.0
 20
0.0
 30
0.0
  9
$PLIMCHECK
 70
     0
  9
$PEXTMIN
 10
1.0000000000E+20
 20
1.0000000000E+20
 30
1.0000000000E+20
  9
$PEXTMAX
 10
-1.0000000000E+20
 20
-1.0000000000E+20
 30
-1.0000000000E+20
  9
$PLIMMIN
 10
0.0
 20
0.0
  9
$PLIMMAX
 10
420.0
 20
297.0
  9
$UNITMODE
 70
     0
  9
$VISRETAIN
 70
     1
  9
$PLINEGEN
 70
     0
  9
$PSLTSCALE
 70
     1
  9
$TREEDEPTH
 70
  3020
  9
$CMLSTYLE
  2
Standard
  9
$CMLJUST
 70
     0
  9
$CMLSCALE
 40
20.0
  9
$PROXYGRAPHICS
 70
     1
  9
$MEASUREMENT
 70
     1
  9
$CELWEIGHT
370
    -1
  9
$ENDCAPS
280
     0
  9
$JOINSTYLE
280
     0
  9
$LWDISPLAY
290
     1
  9
$INSUNITS
 70
     4
  9
$HYPERLINKBASE
  1

  9
$STYLESHEET
  1

  9
$XEDIT
290
     1
  9
$CEPSNTYPE
380
     0
  9
$PSTYLEMODE
290
     1
  9
$FINGERPRINTGUID
  2
{7ed7890b-f60d-42a9-8a4c-c1f131bcc531}
  9
$VERSIONGUID
  2
{FAEB1C32-E019-11D5-929B-00C0DF256EC4}
  9
$EXTNAMES
290
     1
  9
$PSVPSCALE
 40
0.0
  9
$OLESTARTUP
290
     0
  0
ENDSEC
  0
SECTION
  2
CLASSES
  0
CLASS
  1
ACDBDICTIONARYWDFLT
  2
AcDbDictionaryWithDefault
  3
ObjectDBX Classes
 90
        0
280
     0
281
     0
  0
CLASS
  1
VISUALSTYLE
  2
AcDbVisualStyle
  3
ObjectDBX Classes
 90
     4095
280
     0
281
     0
  0
CLASS
  1
MATERIAL
  2
AcDbMaterial
  3
ObjectDBX Classes
 90
     1153
280
     0
281
     0
  0
CLASS
  1
SCALE
  2
AcDbScale
  3
ObjectDBX Classes
 90
     1153
280
     0
281
     0
  0
CLASS
  1
TABLESTYLE
  2
AcDbTableStyle
  3
ObjectDBX Classes
 90
     4095
280
     0
281
     0
  0
CLASS
  1
MLEADERSTYLE
  2
AcDbMLeaderStyle
  3
ACDB_MLEADERSTYLE_CLASS
 90
     4095
280
     0
281
     0
  0
CLASS
  1
SUN
  2
AcDbSun
  3
SCENEOE
 90
     1153
280
     0
281
     0
  0
CLASS
  1
ACDBPLACEHOLDER
  2
AcDbPlaceHolder
  3
ObjectDBX Classes
 90
        0
280
     0
281
     0
  0
CLASS
  1
LAYOUT
  2
AcDbLayout
  3
ObjectDBX Classes
 90
        0
280
     0
281
     0
  0
ENDSEC
  0
SECTION
  2
TABLES
  0
TABLE
  2
VPORT
  5
8
330
0
100
AcDbSymbolTable
 70
     1
  0
VPORT
  5
29
330
8
100
AcDbSymbolTableRecord
100
AcDbViewportTableRecord
  2
*Active
 70
     0
 10
0.0
 20
0.0
 11
1.0
 21
1.0
 12
-1.786
 22
-4.6756866551
 13
0.0
 23
0.0
 14
10.0
 24
10.0
 15
10.0
 25
10.0
 16
0.0
 26
0.0
 36
1.0
 17
0.0
 27
0.0
 37
0.0
 40
105.5714007764
 41
2.2302554316
 42
50.0
 43
0.0
 44
0.0
 50
0.0
 51
0.0
 71
     0
 72
   100
 73
     1
 74
     3
 75
     0
 76
     0
 77
     0
 78
     0
281
     0
 65
     1
110
0.0
120
0.0
130
0.0
111
1.0
121
0.0
131
0.0
112
0.0
122
1.0
132
0.0
 79
     0
146
0.0
  0
ENDTAB
  0
TABLE
  2
LTYPE
  5
5
330
0
100
AcDbSymbolTable
 70
     6
  0
LTYPE
  5
14
330
5
100
AcDbSymbolTableRecord
100
AcDbLinetypeTableRecord
  2
ByBlock
 70
     0
  3

 72
    65
 73
     0
 40
0.0
  0
LTYPE
  5
15
330
5
100
AcDbSymbolTableRecord
100
AcDbLinetypeTableRecord
  2
ByLayer
 70
     0
  3

 72
    65
 73
     0
 40
0.0
  0
LTYPE
  5
16
330
5
100
AcDbSymbolTableRecord
100
AcDbLinetypeTableRecord
  2
Continuous
 70
     0
  3
Solid line
 72
    65
 73
     0
 40
0.0
  0
LTYPE
  5
6E
330
5
100
AcDbSymbolTableRecord
100
AcDbLinetypeTableRecord
  2
HIDDEN
 70
     0
  3
Hidden __ __ __ __ __ __ __ __ __ __ __ __ __ __
 72
    65
 73
     2
 40
1.905
 49
1.27
 74
     0
 49
-0.635
 74
     0
  0
LTYPE
  5
6F
330
5
100
AcDbSymbolTableRecord
100
AcDbLinetypeTableRecord
  2
PHANTOM
 70
     0
  3
Phantom ______  __  __  ______  __  __  ______
 72
    65
 73
     6
 40
12.7
 49
6.35
 74
     0
 49
-1.27
 74
     0
 49
1.27
 74
     0
 49
-1.27
 74
     0
 49
1.27
 74
     0
 49
-1.27
 74
     0
  0
LTYPE
  5
70
330
5
100
AcDbSymbolTableRecord
100
AcDbLinetypeTableRecord
  2
CENTER
 70
     0
  3
Center ____ _ ____ _ ____ _ ____ _ ____ _ ____
 72
    65
 73
     4
 40
10.16
 49
6.35
 74
     0
 49
-1.27
 74
     0
 49
1.27
 74
     0
 49
-1.27
 74
     0
  0
LTYPE
  5
71
330
5
100
AcDbSymbolTableRecord
100
AcDbLinetypeTableRecord
  2
CENTERX2
 70
     0
  3
Center (2x) ________  __  ________  __  _____
 72
    65
 73
     4
 40
20.32
 49
12.7
 74
     0
 49
-2.54
 74
     0
 49
2.54
 74
     0
 49
-2.54
 74
     0
  0
LTYPE
  5
72
330
5
100
AcDbSymbolTableRecord
100
AcDbLinetypeTableRecord
  2
DOT2
 70
     0
  3
Dot (.5x) ........................................
 72
    65
 73
     2
 40
0.635
 49
0.0
 74
     0
 49
-0.635
 74
     0
  0
ENDTAB
  0
TABLE
  2
LAYER
  5
2
330
0
100
AcDbSymbolTable
 70
     1
  0
LAYER
  5
10
330
2
100
AcDbSymbolTableRecord
100
AcDbLayerTableRecord
  2
0
 70
     0
 62
     7
  6
Continuous
370
    -3
390
F
  0
ENDTAB
  0
TABLE
  2
STYLE
  5
3
330
0
100
AcDbSymbolTable
 70
     1
  0
STYLE
  5
11
330
3
100
AcDbSymbolTableRecord
100
AcDbTextStyleTableRecord
  2
Standard
 70
     0
 40
0.0
 41
1.0
 50
0.0
 71
     0
 42
3.5
  3
txt
  4

  0
ENDTAB
  0
TABLE
  2
VIEW
  5
6
330
0
100
AcDbSymbolTable
 70
     0
  0
ENDTAB
  0
TABLE
  2
UCS
  5
7
330
0
100
AcDbSymbolTable
 70
     0
  0
ENDTAB
  0
TABLE
  2
APPID
  5
9
330
0
100
AcDbSymbolTable
 70
     1
  0
APPID
  5
12
330
9
100
AcDbSymbolTableRecord
100
AcDbRegAppTableRecord
  2
ACAD
 70
     0
  0
ENDTAB
  0
TABLE
  2
DIMSTYLE
  5
A
330
0
100
AcDbSymbolTable
 70
     1
100
AcDbDimStyleTable
  0
DIMSTYLE
105
27
330
A
100
AcDbSymbolTableRecord
100
AcDbDimStyleTableRecord
  2
ISO-25
 70
     0
 41
2.5
 42
0.625
 43
3.75
 44
1.25
 73
     0
 74
     0
 77
     1
 78
     8
140
2.5
141
2.5
143
0.0393700787
147
0.625
171
     3
172
     1
178
     0
271
     2
272
     2
274
     3
278
    44
283
     0
284
     8
340
11
  0
ENDTAB
  0
TABLE
  2
BLOCK_RECORD
  5
1
330
0
100
AcDbSymbolTable
 70
     1
  0
BLOCK_RECORD
  5
1F
330
1
100
AcDbSymbolTableRecord
100
AcDbBlockTableRecord
  2
*Model_Space
340
22
  0
BLOCK_RECORD
  5
1B
330
1
100
AcDbSymbolTableRecord
100
AcDbBlockTableRecord
  2
*Paper_Space
340
1E
  0
BLOCK_RECORD
  5
23
330
1
100
AcDbSymbolTableRecord
100
AcDbBlockTableRecord
  2
*Paper_Space0
340
26
  0
ENDTAB
  0
ENDSEC
  0
SECTION
  2
BLOCKS
  0
BLOCK
  5
20
330
1F
100
AcDbEntity
  8
0
100
AcDbBlockBegin
  2
*Model_Space
 70
     0
 10
0.0
 20
0.0
 30
0.0
  3
*Model_Space
  1

  0
ENDBLK
  5
21
330
1F
100
AcDbEntity
  8
0
100
AcDbBlockEnd
  0
BLOCK
  5
1C
330
1B
100
AcDbEntity
 67
     1
  8
0
100
AcDbBlockBegin
  2
*Paper_Space
 70
     0
 10
0.0
 20
0.0
 30
0.0
  3
*Paper_Space
  1

  0
ENDBLK
  5
1D
330
1B
100
AcDbEntity
 67
     1
  8
0
100
AcDbBlockEnd
  0
BLOCK
  5
24
330
23
100
AcDbEntity
  8
0
100
AcDbBlockBegin
  2
*Paper_Space0
 70
     0
 10
0.0
 20
0.0
 30
0.0
  3
*Paper_Space0
  1

  0
ENDBLK
  5
25
330
23
100
AcDbEntity
  8
0
100
AcDbBlockEnd
  0
ENDSEC
  0
SECTION
  2
ENTITIES
  0
CIRCLE
  5
73
330
1F
100
AcDbEntity
  8
0
  6
Continuous
 62
     7
370
    25
100
AcDbCircle
 10
-19.8754894503
 20
35.0240126826
 30
0.0
 40
1.599999999999994
  0
CIRCLE
  5
74
330
1F
100
AcDbEntity
  8
0
  6
Continuous
 62
     7
370
    25
100
AcDbCircle
 10
19.8296353967
 20
35.0240134617
 30
0.0
 40
1.599999999999987
  0
CIRCLE
  5
75
330
1F
100
AcDbEntity
  8
0
  6
Continuous
 62
     7
370
    25
100
AcDbCircle
 10
93.63125
 20
43.575
 30
0.0
 40
1.600000000000001
  0
CIRCLE
  5
76
330
1F
100
AcDbEntity
  8
0
  6
Continuous
 62
     7
370
    25
100
AcDbCircle
 10
93.63125
 20
-43.575
 30
0.0
 40
1.600000000000001
  0
CIRCLE
  5
77
330
1F
100
AcDbEntity
  8
0
  6
Continuous
 62
     7
370
    25
100
AcDbCircle
 10
20.2286959614
 20
-52.9263733102
 30
0.0
 40
1.600000000000001
  0
CIRCLE
  5
78
330
1F
100
AcDbEntity
  8
0
  6
Continuous
 62
     7
370
    25
100
AcDbCircle
 10
-20.2745724318
 20
-52.9263733102
 30
0.0
 40
1.599999999999987
  0
CIRCLE
  5
79
330
1F
100
AcDbEntity
  8
0
  6
Continuous
 62
     7
370
    25
100
AcDbCircle
 10
-97.20325
 20
-43.575
 30
0.0
 40
1.600000000000001
  0
CIRCLE
  5
7A
330
1F
100
AcDbEntity
  8
0
  6
Continuous
 62
     7
370
    25
100
AcDbCircle
 10
-97.20325
 20
43.575
 30
0.0
 40
1.600000000000001
  0
ARC
  5
7B
330
1F
100
AcDbEntity
  8
0
  6
Continuous
 62
     7
370
    25
100
AcDbCircle
 10
-35.2567548188
 20
-28.0996450163
 30
0.0
 40
0.5000000000000088
100
AcDbArc
 50
352.0000013035
 51
82.0000013035
  0
LINE
  5
7C
330
1F
100
AcDbEntity
  8
0
  6
Continuous
 62
     7
370
    25
100
AcDbLine
 10
-36.7100438786
 20
-42.0329845459
 30
0.0
 11
-34.7616207828
 21
-28.1692315555
 31
0.0
  0
ARC
  5
7D
330
1F
100
AcDbEntity
  8
0
  6
Continuous
 62
     7
370
    25
100
AcDbCircle
 10
-37.2051779146
 20
-41.9633980067
 30
0.0
 40
0.5000000000000149
100
AcDbArc
 50
262.0000014289
 51
352.0000013035
  0
LINE
  5
7E
330
1F
100
AcDbEntity
  8
0
  6
Continuous
 62
     7
370
    25
100
AcDbLine
 10
-44.2066409582
 20
-41.484320509
 30
0.0
 11
-37.2747644527
 21
-42.4585320428
 31
0.0
  0
ARC
  5
7F
330
1F
100
AcDbEntity
  8
0
  6
Continuous
 62
     7
370
    25
100
AcDbCircle
 10
-44.13705442
 20
-40.9891864729
 30
0.0
 40
0.5000000000000159
100
AcDbArc
 50
172.0000013035
 51
262.0000014289
  0
LINE
  5
80
330
1F
100
AcDbEntity
  8
0
  6
Continuous
 62
     7
370
    25
100
AcDbLine
 10
-42.6837653581
 20
-27.055846928
 30
0.0
 11
-44.632188456
 21
-40.9195999337
 31
0.0
  0
ARC
  5
81
330
1F
100
AcDbEntity
  8
0
  6
Continuous
 62
     7
370
    25
100
AcDbCircle
 10
-42.1886313222
 20
-27.1254334672
 30
0.0
 40
0.5000000000000012
100
AcDbArc
 50
82.0000013035
 51
172.0000013035
  0
LINE
  5
82
330
1F
100
AcDbEntity
  8
0
  6
Continuous
 62
     7
370
    25
100
AcDbLine
 10
-35.1871682796
 20
-27.6045109803
 30
0.0
 11
-42.1190447829
 21
-26.6302994313
 31
0.0
  0
ARC
  5
83
330
1F
100
AcDbEntity
  8
0
  6
Continuous
 62
     7
370
    25
100
AcDbCircle
 10
-12.3989636334
 20
-45.4496834367
 30
0.0
 40
0.5000000000000001
100
AcDbArc
 50
262.0000014289
 51
352.0000015544
  0
LINE
  5
84
330
1F
100
AcDbEntity
  8
0
  6
Continuous
 62
     7
370
    25
100
AcDbLine
 10
-19.400426677
 20
-44.970605939
 30
0.0
 11
-12.4685501716
 21
-45.9448174728
 31
0.0
  0
ARC
  5
85
330
1F
100
AcDbEntity
  8
0
  6
Continuous
 62
     7
370
    25
100
AcDbCircle
 10
-19.3308401389
 20
-44.4754719029
 30
0.0
 40
0.5000000000000003
100
AcDbArc
 50
172.0000015544
 51
262.0000014289
  0
LINE
  5
86
330
1F
100
AcDbEntity
  8
0
  6
Continuous
 62
     7
370
    25
100
AcDbLine
 10
-17.8775511401
 20
-30.5421323668
 30
0.0
 11
-19.8259741752
 21
-44.4058853658
 31
0.0
  0
ARC
  5
87
330
1F
100
AcDbEntity
  8
0
  6
Continuous
 62
     7
370
    25
100
AcDbCircle
 10
-17.3824171039
 20
-30.6117189039
 30
0.0
 40
0.5000000000000013
100
AcDbArc
 50
82.0000015544
 51
172.0000015544
  0
LINE
  5
88
330
1F
100
AcDbEntity
  8
0
  6
Continuous
 62
     7
370
    25
100
AcDbLine
 10
-10.3809540592
 20
-31.0907963863
 30
0.0
 11
-17.3128305668
 21
-30.1165848676
 31
0.0
  0
ARC
  5
89
330
1F
100
AcDbEntity
  8
0
  6
Continuous
 62
     7
370
    25
100
AcDbCircle
 10
-10.4505405962
 20
-31.5859304226
 30
0.0
 40
0.5000000000000089
100
AcDbArc
 50
352.0000015544
 51
82.0000015544
  0
LINE
  5
8A
330
1F
100
AcDbEntity
  8
0
  6
Continuous
 62
     7
370
    25
100
AcDbLine
 10
-11.9038295972
 20
-45.5192699738
 30
0.0
 11
-9.95540656
 21
-31.6555169596
 31
0.0
  0
ARC
  5
8B
330
1F
100
AcDbEntity
  8
0
  6
Continuous
 62
     7
370
    25
100
AcDbCircle
 10
11.2869855879
 20
-45.5995155836
 30
0.0
 40
0.5000000000000023
100
AcDbArc
 50
187.9999984454
 51
277.9999985708
  0
LINE
  5
8C
330
1F
100
AcDbEntity
  8
0
  6
Continuous
 62
     7
370
    25
100
AcDbLine
 10
8.8434285145
 20
-31.8053491065
 30
0.0
 11
10.7918515516
 21
-45.6691021206
 31
0.0
  0
ARC
  5
8D
330
1F
100
AcDbEntity
  8
0
  6
Continuous
 62
     7
370
    25
100
AcDbCircle
 10
9.3385625508
 20
-31.7357625694
 30
0.0
 40
0.5000000000000057
100
AcDbArc
 50
97.9999985708
 51
187.9999984454
  0
LINE
  5
8E
330
1F
100
AcDbEntity
  8
0
  6
Continuous
 62
     7
370
    25
100
AcDbLine
 10
16.2008525181
 20
-30.2664169995
 30
0.0
 11
9.2689760126
 21
-31.2406285333
 31
0.0
  0
ARC
  5
8F
330
1F
100
AcDbEntity
  8
0
  6
Continuous
 62
     7
370
    25
100
AcDbCircle
 10
16.2704390563
 20
-30.7615510356
 30
0.0
 40
0.5000000000000047
100
AcDbArc
 50
7.9999985708
 51
97.9999985708
  0
LINE
  5
90
330
1F
100
AcDbEntity
  8
0
  6
Continuous
 62
     7
370
    25
100
AcDbLine
 10
18.7139961598
 20
-44.5557175074
 30
0.0
 11
16.7655730924
 21
-30.6919644975
 31
0.0
  0
ARC
  5
91
330
1F
100
AcDbEntity
  8
0
  6
Continuous
 62
     7
370
    25
100
AcDbCircle
 10
18.2188621237
 20
-44.6253040455
 30
0.0
 40
0.5000000000000017
100
AcDbArc
 50
277.9999985708
 51
7.9999985708
  0
LINE
  5
92
330
1F
100
AcDbEntity
  8
0
  6
Continuous
 62
     7
370
    25
100
AcDbLine
 10
11.356572126
 20
-46.0946496197
 30
0.0
 11
18.2884486619
 21
-45.1204380816
 31
0.0
  0
ARC
  5
93
330
1F
100
AcDbEntity
  8
0
  6
Continuous
 62
     7
370
    25
100
AcDbCircle
 10
41.0766542975
 20
-27.2752654708
 30
0.0
 40
0.5000000000000107
100
AcDbArc
 50
7.9999986963
 51
97.9999985708
  0
LINE
  5
94
330
1F
100
AcDbEntity
  8
0
  6
Continuous
 62
     7
370
    25
100
AcDbLine
 10
43.5202114312
 20
-41.0694319372
 30
0.0
 11
41.5717883334
 21
-27.2056789316
 31
0.0
  0
ARC
  5
95
330
1F
100
AcDbEntity
  8
0
  6
Continuous
 62
     7
370
    25
100
AcDbCircle
 10
43.0250773953
 20
-41.1390184764
 30
0.0
 40
0.5000000000000036
100
AcDbArc
 50
277.9999985708
 51
7.9999986963
  0
LINE
  5
96
330
1F
100
AcDbEntity
  8
0
  6
Continuous
 62
     7
370
    25
100
AcDbLine
 10
36.1627873976
 20
-42.6083640506
 30
0.0
 11
43.0946639334
 21
-41.6341525125
 31
0.0
  0
ARC
  5
97
330
1F
100
AcDbEntity
  8
0
  6
Continuous
 62
     7
370
    25
100
AcDbCircle
 10
36.0932008594
 20
-42.1132300145
 30
0.0
 40
0.5000000000000067
100
AcDbArc
 50
187.9999985708
 51
277.9999985708
  0
LINE
  5
98
330
1F
100
AcDbEntity
  8
0
  6
Continuous
 62
     7
370
    25
100
AcDbLine
 10
33.6496437559
 20
-28.3190635427
 30
0.0
 11
35.5980668233
 21
-42.1828165526
 31
0.0
  0
ARC
  5
99
330
1F
100
AcDbEntity
  8
0
  6
Continuous
 62
     7
370
    25
100
AcDbCircle
 10
34.144777792
 20
-28.2494770046
 30
0.0
 40
0.5000000000000011
100
AcDbArc
 50
97.9999985708
 51
187.9999985708
  0
LINE
  5
9A
330
1F
100
AcDbEntity
  8
0
  6
Continuous
 62
     7
370
    25
100
AcDbLine
 10
41.0070677593
 20
-26.7801314347
 30
0.0
 11
34.0751912538
 21
-27.7543429685
 31
0.0
  0
LINE
  5
9B
330
1F
100
AcDbEntity
  8
0
  6
Continuous
 62
     7
370
    25
100
AcDbLine
 10
10.7253556052
 20
32.734662325
 30
0.0
 11
13.8443388249
 21
33.1730069931
 31
0.0
  0
ARC
  5
9C
330
1F
100
AcDbEntity
  8
0
  6
Continuous
 62
     7
370
    25
100
AcDbCircle
 10
10.7949421811
 20
32.2395282942
 30
0.0
 40
0.5
100
AcDbArc
 50
98.0000029354
 51
184.0000014677
  0
LINE
  5
9D
330
1F
100
AcDbEntity
  8
0
  6
Continuous
 62
     7
370
    25
100
AcDbLine
 10
10.4408916836
 20
30.1348935452
 30
0.0
 11
10.2961601568
 21
32.2046500445
 31
0.0
  0
ARC
  5
9E
330
1F
100
AcDbEntity
  8
0
  6
Continuous
 62
     7
370
    25
100
AcDbCircle
 10
9.9421096594
 20
30.1000152956
 30
0.0
 40
0.5
100
AcDbArc
 50
270.0
 51
4.0000014677
  0
LINE
  5
9F
330
1F
100
AcDbEntity
  8
0
  6
Continuous
 62
     7
370
    25
100
AcDbLine
 10
-9.9879635221
 20
29.6000152956
 30
0.0
 11
9.9421096594
 21
29.6000152956
 31
0.0
  0
ARC
  5
A0
330
1F
100
AcDbEntity
  8
0
  6
Continuous
 62
     7
370
    25
100
AcDbCircle
 10
-9.9879635221
 20
30.1000152956
 30
0.0
 40
0.5000000000000008
100
AcDbArc
 50
176.0000007145
 51
270.0
  0
LINE
  5
A1
330
1F
100
AcDbEntity
  8
0
  6
Continuous
 62
     7
370
    25
100
AcDbLine
 10
-10.3420141028
 20
32.2046499876
 30
0.0
 11
-10.4867455477
 21
30.1348935263
 31
0.0
  0
ARC
  5
A2
330
1F
100
AcDbEntity
  8
0
  6
Continuous
 62
     7
370
    25
100
AcDbCircle
 10
-10.8407961283
 20
32.2395282182
 30
0.0
 40
0.5000000000000008
100
AcDbArc
 50
356.0000007145
 51
82.000001429
  0
LINE
  5
A3
330
1F
100
AcDbEntity
  8
0
  6
Continuous
 62
     7
370
    25
100
AcDbLine
 10
-13.8901927374
 20
33.1730066699
 30
0.0
 11
-10.7712095902
 21
32.7346622543
 31
0.0
  0
ARC
  5
A4
330
1F
100
AcDbEntity
  8
0
  6
Continuous
 62
     7
370
    25
100
AcDbCircle
 10
-13.4726735086
 20
36.1438108866
 30
0.0
 40
3.000000000000006
100
AcDbArc
 50
189.9202145684
 51
262.000001429
  0
ARC
  5
A5
330
1F
100
AcDbEntity
  8
0
  6
Continuous
 62
     7
370
    25
100
AcDbCircle
 10
-19.8754894503
 20
35.0240126826
 30
0.0
 40
3.500000000000011
100
AcDbArc
 50
9.9202145684
 51
154.0797882896
  0
ARC
  5
A6
330
1F
100
AcDbEntity
  8
0
  6
Continuous
 62
     7
370
    25
100
AcDbCircle
 10
-25.7216130869
 20
37.8652867676
 30
0.0
 40
3.000000000000008
100
AcDbArc
 50
262.000001429
 51
334.0797882896
  0
LINE
  5
A7
330
1F
100
AcDbEntity
  8
0
  6
Continuous
 62
     7
370
    25
100
AcDbLine
 10
-80.7888635152
 20
42.575
 30
0.0
 11
-26.1391323157
 21
34.8944825509
 31
0.0
  0
LINE
  5
A8
330
1F
100
AcDbEntity
  8
0
  6
Continuous
 62
     7
370
    25
100
AcDbLine
 10
-91.0185915616
 20
42.575
 30
0.0
 11
-80.7888635152
 21
42.575
 31
0.0
  0
ARC
  5
A9
330
1F
100
AcDbEntity
  8
0
  6
Continuous
 62
     7
370
    25
100
AcDbCircle
 10
-91.0185915616
 20
45.575
 30
0.0
 40
3.0
100
AcDbArc
 50
197.9202131394
 51
270.0
  0
ARC
  5
AA
330
1F
100
AcDbEntity
  8
0
  6
Continuous
 62
     7
370
    25
100
AcDbCircle
 10
-97.20325
 20
43.575
 30
0.0
 40
3.500000000000024
100
AcDbArc
 50
17.9202131394
 51
162.0797868606
  0
ARC
  5
AB
330
1F
100
AcDbEntity
  8
0
  6
Continuous
 62
     7
370
    25
100
AcDbCircle
 10
-103.3879084384
 20
45.575
 30
0.0
 40
3.0
100
AcDbArc
 50
270.0
 51
342.0797868606
  0
LINE
  5
AC
330
1F
100
AcDbEntity
  8
0
  6
Continuous
 62
     7
370
    25
100
AcDbLine
 10
-112.20325
 20
42.575
 30
0.0
 11
-103.3879084384
 21
42.575
 31
0.0
  0
ARC
  5
AD
330
1F
100
AcDbEntity
  8
0
  6
Continuous
 62
     7
370
    25
100
AcDbCircle
 10
-112.20325
 20
37.575
 30
0.0
 40
5.000000000000007
100
AcDbArc
 50
90.0
 51
180.0
  0
LINE
  5
AE
330
1F
100
AcDbEntity
  8
0
  6
Continuous
 62
     7
370
    25
100
AcDbLine
 10
-117.20325
 20
-37.575
 30
0.0
 11
-117.20325
 21
37.575
 31
0.0
  0
ARC
  5
AF
330
1F
100
AcDbEntity
  8
0
  6
Continuous
 62
     7
370
    25
100
AcDbCircle
 10
-112.20325
 20
-37.575
 30
0.0
 40
5.000000000000007
100
AcDbArc
 50
180.0
 51
270.0
  0
LINE
  5
B0
330
1F
100
AcDbEntity
  8
0
  6
Continuous
 62
     7
370
    25
100
AcDbLine
 10
-103.3879084384
 20
-42.575
 30
0.0
 11
-112.20325
 21
-42.575
 31
0.0
  0
ARC
  5
B1
330
1F
100
AcDbEntity
  8
0
  6
Continuous
 62
     7
370
    25
100
AcDbCircle
 10
-103.3879084384
 20
-45.575
 30
0.0
 40
3.0
100
AcDbArc
 50
17.9202131394
 51
90.0
  0
ARC
  5
B2
330
1F
100
AcDbEntity
  8
0
  6
Continuous
 62
     7
370
    25
100
AcDbCircle
 10
-97.20325
 20
-43.575
 30
0.0
 40
3.500000000000024
100
AcDbArc
 50
197.9202131394
 51
342.0797868606
  0
ARC
  5
B3
330
1F
100
AcDbEntity
  8
0
  6
Continuous
 62
     7
370
    25
100
AcDbCircle
 10
-91.0185915616
 20
-45.575
 30
0.0
 40
3.0
100
AcDbArc
 50
90.0
 51
162.0797868606
  0
LINE
  5
B4
330
1F
100
AcDbEntity
  8
0
  6
Continuous
 62
     7
370
    25
100
AcDbLine
 10
-86.7431361881
 20
-42.575
 30
0.0
 11
-91.0185915616
 21
-42.575
 31
0.0
  0
LINE
  5
B5
330
1F
100
AcDbEntity
  8
0
  6
Continuous
 62
     7
370
    25
100
AcDbLine
 10
-26.2598691447
 20
-51.0753672975
 30
0.0
 11
-86.7431361881
 21
-42.575
 31
0.0
  0
ARC
  5
B6
330
1F
100
AcDbEntity
  8
0
  6
Continuous
 62
     7
370
    25
100
AcDbCircle
 10
-26.6773883735
 20
-54.0461715141
 30
0.0
 40
3.000000000000002
100
AcDbArc
 50
9.9202145684
 51
82.000001429
  0
ARC
  5
B7
330
1F
100
AcDbEntity
  8
0
  6
Continuous
 62
     7
370
    25
100
AcDbCircle
 10
-20.2745724318
 20
-52.9263733102
 30
0.0
 40
3.499999999999996
100
AcDbArc
 50
189.9202145684
 51
334.0797882896
  0
ARC
  5
B8
330
1F
100
AcDbEntity
  8
0
  6
Continuous
 62
     7
370
    25
100
AcDbCircle
 10
-14.4284487952
 20
-55.7676473951
 30
0.0
 40
3.000000000000001
100
AcDbArc
 50
82.000001429
 51
154.0797882896
  0
LINE
  5
B9
330
1F
100
AcDbEntity
  8
0
  6
Continuous
 62
     7
370
    25
100
AcDbLine
 10
-10.2327186334
 20
-53.3278360006
 30
0.0
 11
-14.0109295664
 21
-52.7968431785
 31
0.0
  0
LINE
  5
BA
330
1F
100
AcDbEntity
  8
0
  6
Continuous
 62
     7
370
    25
100
AcDbLine
 10
10.186842163
 20
-53.3278360006
 30
0.0
 11
-10.2327186334
 21
-53.3278360006
 31
0.0
  0
LINE
  5
BB
330
1F
100
AcDbEntity
  8
0
  6
Continuous
 62
     7
370
    25
100
AcDbLine
 10
13.965053096
 20
-52.7968431785
 30
0.0
 11
10.186842163
 21
-53.3278360006
 31
0.0
  0
ARC
  5
BC
330
1F
100
AcDbEntity
  8
0
  6
Continuous
 62
     7
370
    25
100
AcDbCircle
 10
14.3825723248
 20
-55.7676473951
 30
0.0
 40
3.000000000000015
100
AcDbArc
 50
25.9202117104
 51
97.999998571
  0
ARC
  5
BD
330
1F
100
AcDbEntity
  8
0
  6
Continuous
 62
     7
370
    25
100
AcDbCircle
 10
20.2286959614
 20
-52.9263733102
 30
0.0
 40
3.500000000000004
100
AcDbArc
 50
205.9202117104
 51
350.0797854316
  0
ARC
  5
BE
330
1F
100
AcDbEntity
  8
0
  6
Continuous
 62
     7
370
    25
100
AcDbCircle
 10
26.6315119031
 20
-54.0461715141
 30
0.0
 40
2.999999999999999
100
AcDbArc
 50
97.999998571
 51
170.0797854316
  0
LINE
  5
BF
330
1F
100
AcDbEntity
  8
0
  6
Continuous
 62
     7
370
    25
100
AcDbLine
 10
86.6972597176
 20
-42.575
 30
0.0
 11
26.2139926743
 21
-51.0753672975
 31
0.0
  0
LINE
  5
C0
330
1F
100
AcDbEntity
  8
0
  6
Continuous
 62
     7
370
    25
100
AcDbLine
 10
87.4465915616
 20
-42.575
 30
0.0
 11
86.6972597176
 21
-42.575
 31
0.0
  0
ARC
  5
C1
330
1F
100
AcDbEntity
  8
0
  6
Continuous
 62
     7
370
    25
100
AcDbCircle
 10
87.4465915616
 20
-45.575
 30
0.0
 40
3.0
100
AcDbArc
 50
17.9202131394
 51
90.0
  0
ARC
  5
C2
330
1F
100
AcDbEntity
  8
0
  6
Continuous
 62
     7
370
    25
100
AcDbCircle
 10
93.63125
 20
-43.575
 30
0.0
 40
3.500000000000024
100
AcDbArc
 50
197.9202131394
 51
342.0797868606
  0
ARC
  5
C3
330
1F
100
AcDbEntity
  8
0
  6
Continuous
 62
     7
370
    25
100
AcDbCircle
 10
99.8159084384
 20
-45.575
 30
0.0
 40
3.0
100
AcDbArc
 50
90.0
 51
162.0797868606
  0
LINE
  5
C4
330
1F
100
AcDbEntity
  8
0
  6
Continuous
 62
     7
370
    25
100
AcDbLine
 10
108.63125
 20
-42.575
 30
0.0
 11
99.8159084384
 21
-42.575
 31
0.0
  0
ARC
  5
C5
330
1F
100
AcDbEntity
  8
0
  6
Continuous
 62
     7
370
    25
100
AcDbCircle
 10
108.63125
 20
-37.575
 30
0.0
 40
5.000000000000014
100
AcDbArc
 50
270.0
 51
0.0
  0
LINE
  5
C6
330
1F
100
AcDbEntity
  8
0
  6
Continuous
 62
     7
370
    25
100
AcDbLine
 10
113.63125
 20
37.575
 30
0.0
 11
113.63125
 21
-37.575
 31
0.0
  0
ARC
  5
C7
330
1F
100
AcDbEntity
  8
0
  6
Continuous
 62
     7
370
    25
100
AcDbCircle
 10
108.63125
 20
37.575
 30
0.0
 40
5.000000000000014
100
AcDbArc
 50
0.0
 51
90.0
  0
LINE
  5
C8
330
1F
100
AcDbEntity
  8
0
  6
Continuous
 62
     7
370
    25
100
AcDbLine
 10
99.8159084384
 20
42.575
 30
0.0
 11
108.63125
 21
42.575
 31
0.0
  0
ARC
  5
C9
330
1F
100
AcDbEntity
  8
0
  6
Continuous
 62
     7
370
    25
100
AcDbCircle
 10
99.8159084384
 20
45.575
 30
0.0
 40
3.0
100
AcDbArc
 50
197.9202131394
 51
270.0
  0
ARC
  5
CA
330
1F
100
AcDbEntity
  8
0
  6
Continuous
 62
     7
370
    25
100
AcDbCircle
 10
93.63125
 20
43.575
 30
0.0
 40
3.500000000000024
100
AcDbArc
 50
17.9202131394
 51
162.0797868606
  0
ARC
  5
CB
330
1F
100
AcDbEntity
  8
0
  6
Continuous
 62
     7
370
    25
100
AcDbCircle
 10
87.4465915616
 20
45.575
 30
0.0
 40
3.0
100
AcDbArc
 50
270.0
 51
342.0797868606
  0
LINE
  5
CC
330
1F
100
AcDbEntity
  8
0
  6
Continuous
 62
     7
370
    25
100
AcDbLine
 10
80.7429703274
 20
42.575
 30
0.0
 11
87.4465915616
 21
42.575
 31
0.0
  0
LINE
  5
CD
330
1F
100
AcDbEntity
  8
0
  6
Continuous
 62
     7
370
    25
100
AcDbLine
 10
26.093278272
 20
34.8944838071
 30
0.0
 11
80.7429703274
 21
42.575
 31
0.0
  0
ARC
  5
CE
330
1F
100
AcDbEntity
  8
0
  6
Continuous
 62
     7
370
    25
100
AcDbCircle
 10
25.6757588169
 20
37.865287992
 30
0.0
 40
3.000000000000002
100
AcDbArc
 50
205.9202160748
 51
278.0000029354
  0
ARC
  5
CF
330
1F
100
AcDbEntity
  8
0
  6
Continuous
 62
     7
370
    25
100
AcDbCircle
 10
19.8296353967
 20
35.0240134617
 30
0.0
 40
3.500000000000012
100
AcDbArc
 50
25.9202160748
 51
170.079789796
  0
ARC
  5
D0
330
1F
100
AcDbEntity
  8
0
  6
Continuous
 62
     7
370
    25
100
AcDbCircle
 10
13.4268193698
 20
36.1438111779
 30
0.0
 40
3.000000000000002
100
AcDbArc
 50
278.0000029354
 51
350.079789796
  0
LINE
  5
D1
330
1F
100
AcDbEntity
  8
0
  6
Continuous
 62
     7
370
    25
100
AcDbLine
 10
25.1959599656
 20
-11.2797635505
 30
0.0
 11
27.0052109656
 21
-24.1532485505
 31
0.0
  0
ARC
  5
D2
330
1F
100
AcDbEntity
  8
0
  6
Continuous
 62
     7
370
    25
100
AcDbCircle
 10
25.691094
 20
-11.210177
 30
0.0
 40
0.5000000000000091
100
AcDbArc
 50
98.0
 51
188.0
  0
LINE
  5
D3
330
1F
100
AcDbEntity
  8
0
  6
Continuous
 62
     7
370
    25
100
AcDbLine
 10
38.4949929846
 20
-8.9057928904
 30
0.0
 11
25.6215074495
 21
-10.7150429656
 31
0.0
  0
ARC
  5
D4
330
1F
100
AcDbEntity
  8
0
  6
Continuous
 62
     7
370
    25
100
AcDbCircle
 10
38.564579
 20
-9.400927
 30
0.0
 40
0.5000000035906791
100
AcDbArc
 50
8.000051558
 51
97.9999380813
  0
LINE
  5
D5
330
1F
100
AcDbEntity
  8
0
  6
Continuous
 62
     7
370
    25
100
AcDbLine
 10
40.868963
 20
-22.204825
 30
0.0
 11
39.0597129753
 21
-9.3313400035
 31
0.0
  0
ARC
  5
D6
330
1F
100
AcDbEntity
  8
0
  6
Continuous
 62
     7
370
    25
100
AcDbCircle
 10
40.373829
 20
-22.274412
 30
0.0
 40
0.5000000285250008
100
AcDbArc
 50
278.000051558
 51
8.000051558
  0
LINE
  5
D7
330
1F
100
AcDbEntity
  8
0
  6
Continuous
 62
     7
370
    25
100
AcDbLine
 10
27.5699310154
 20
-24.5787961096
 30
0.0
 11
40.443416
 21
-22.769546
 31
0.0
  0
ARC
  5
D8
330
1F
100
AcDbEntity
  8
0
  6
Continuous
 62
     7
370
    25
100
AcDbCircle
 10
27.500345
 20
-24.083662
 30
0.0
 40
0.5000000000286292
100
AcDbArc
 50
188.0
 51
277.9999380813
  0
LINE
  5
D9
330
1F
100
AcDbEntity
  8
0
  6
Continuous
 62
     7
370
    25
100
AcDbLine
 10
91.89325
 20
-35.575
 30
0.0
 11
104.89325
 21
-35.575
 31
0.0
  0
ARC
  5
DA
330
1F
100
AcDbEntity
  8
0
  6
Continuous
 62
     7
370
    25
100
AcDbCircle
 10
91.89325
 20
-35.075
 30
0.0
 40
0.5
100
AcDbArc
 50
180.0
 51
270.0
  0
LINE
  5
DB
330
1F
100
AcDbEntity
  8
0
  6
Continuous
 62
     7
370
    25
100
AcDbLine
 10
91.39325
 20
-22.075
 30
0.0
 11
91.39325
 21
-35.075
 31
0.0
  0
ARC
  5
DC
330
1F
100
AcDbEntity
  8
0
  6
Continuous
 62
     7
370
    25
100
AcDbCircle
 10
91.89325
 20
-22.075
 30
0.0
 40
0.5
100
AcDbArc
 50
90.0
 51
180.0
  0
LINE
  5
DD
330
1F
100
AcDbEntity
  8
0
  6
Continuous
 62
     7
370
    25
100
AcDbLine
 10
104.89325
 20
-21.575
 30
0.0
 11
91.89325
 21
-21.575
 31
0.0
  0
ARC
  5
DE
330
1F
100
AcDbEntity
  8
0
  6
Continuous
 62
     7
370
    25
100
AcDbCircle
 10
104.89325
 20
-22.075
 30
0.0
 40
0.5
100
AcDbArc
 50
0.0
 51
90.0
  0
LINE
  5
DF
330
1F
100
AcDbEntity
  8
0
  6
Continuous
 62
     7
370
    25
100
AcDbLine
 10
105.39325
 20
-35.075
 30
0.0
 11
105.39325
 21
-22.075
 31
0.0
  0
ARC
  5
E0
330
1F
100
AcDbEntity
  8
0
  6
Continuous
 62
     7
370
    25
100
AcDbCircle
 10
104.89325
 20
-35.075
 30
0.0
 40
0.5
100
AcDbArc
 50
270.0
 51
0.0
  0
LINE
  5
E1
330
1F
100
AcDbEntity
  8
0
  6
Continuous
 62
     7
370
    25
100
AcDbLine
 10
104.13125
 20
16.525
 30
0.0
 11
91.13125
 21
16.525
 31
0.0
  0
ARC
  5
E2
330
1F
100
AcDbEntity
  8
0
  6
Continuous
 62
     7
370
    25
100
AcDbCircle
 10
104.13125
 20
16.025
 30
0.0
 40
0.5
100
AcDbArc
 50
0.0
 51
90.0
  0
LINE
  5
E3
330
1F
100
AcDbEntity
  8
0
  6
Continuous
 62
     7
370
    25
100
AcDbLine
 10
104.63125
 20
3.025
 30
0.0
 11
104.63125
 21
16.025
 31
0.0
  0
ARC
  5
E4
330
1F
100
AcDbEntity
  8
0
  6
Continuous
 62
     7
370
    25
100
AcDbCircle
 10
104.13125
 20
3.025
 30
0.0
 40
0.5000000000000004
100
AcDbArc
 50
270.0
 51
0.0
  0
LINE
  5
E5
330
1F
100
AcDbEntity
  8
0
  6
Continuous
 62
     7
370
    25
100
AcDbLine
 10
91.13125
 20
2.525
 30
0.0
 11
104.13125
 21
2.525
 31
0.0
  0
ARC
  5
E6
330
1F
100
AcDbEntity
  8
0
  6
Continuous
 62
     7
370
    25
100
AcDbCircle
 10
91.13125
 20
3.025
 30
0.0
 40
0.5
100
AcDbArc
 50
180.0
 51
270.0
  0
LINE
  5
E7
330
1F
100
AcDbEntity
  8
0
  6
Continuous
 62
     7
370
    25
100
AcDbLine
 10
90.63125
 20
16.025
 30
0.0
 11
90.63125
 21
3.025
 31
0.0
  0
ARC
  5
E8
330
1F
100
AcDbEntity
  8
0
  6
Continuous
 62
     7
370
    25
100
AcDbCircle
 10
91.13125
 20
16.025
 30
0.0
 40
0.5
100
AcDbArc
 50
90.0
 51
180.0
  0
LINE
  5
E9
330
1F
100
AcDbEntity
  8
0
  6
Continuous
 62
     7
370
    25
100
AcDbLine
 10
59.7335711096
 20
-19.5535779846
 30
0.0
 11
57.9243200344
 21
-6.6800924495
 31
0.0
  0
ARC
  5
EA
330
1F
100
AcDbEntity
  8
0
  6
Continuous
 62
     7
370
    25
100
AcDbCircle
 10
59.2384369846
 20
-19.6231638904
 30
0.0
 40
0.5000000000143191
100
AcDbArc
 50
277.9999380817
 51
7.999925402
  0
LINE
  5
EB
330
1F
100
AcDbEntity
  8
0
  6
Continuous
 62
     7
370
    25
100
AcDbLine
 10
46.434538
 20
-21.927548
 30
0.0
 11
59.308023
 21
-20.118298
 31
0.0
  0
ARC
  5
EC
330
1F
100
AcDbEntity
  8
0
  6
Continuous
 62
     7
370
    25
100
AcDbCircle
 10
46.364952
 20
-21.432414
 30
0.0
 40
0.4999999170139974
100
AcDbArc
 50
188.0
 51
277.9999380817
  0
LINE
  5
ED
330
1F
100
AcDbEntity
  8
0
  6
Continuous
 62
     7
370
    25
100
AcDbLine
 10
44.0605678904
 20
-8.6285160154
 30
0.0
 11
45.8698180478
 21
-21.5020005389
 31
0.0
  0
ARC
  5
EE
330
1F
100
AcDbEntity
  8
0
  6
Continuous
 62
     7
370
    25
100
AcDbCircle
 10
44.555702
 20
-8.55893
 30
0.0
 40
0.5000000000143142
100
AcDbArc
 50
98.0
 51
187.9999380813
  0
LINE
  5
EF
330
1F
100
AcDbEntity
  8
0
  6
Continuous
 62
     7
370
    25
100
AcDbLine
 10
57.3595999846
 20
-6.2545448904
 30
0.0
 11
44.4861154495
 21
-8.0637959656
 31
0.0
  0
ARC
  5
F0
330
1F
100
AcDbEntity
  8
0
  6
Continuous
 62
     7
370
    25
100
AcDbCircle
 10
57.429186
 20
-6.749679
 30
0.0
 40
0.5000000000143241
100
AcDbArc
 50
8.0
 51
97.9999380813
  0
LINE
  5
F1
330
1F
100
AcDbEntity
  8
0
  6
Continuous
 62
     7
370
    25
100
AcDbLine
 10
-31.1564644475
 20
9.2936140485
 30
0.0
 11
-44.029949
 21
11.102864
 31
0.0
  0
ARC
  5
F2
330
1F
100
AcDbEntity
  8
0
  6
Continuous
 62
     7
370
    25
100
AcDbCircle
 10
-31.226051
 20
8.79848
 30
0.0
 40
0.5000000285249961
100
AcDbArc
 50
351.999948442
 51
81.9999999982
  0
LINE
  5
F3
330
1F
100
AcDbEntity
  8
0
  6
Continuous
 62
     7
370
    25
100
AcDbLine
 10
-32.540167
 20
-4.144592
 30
0.0
 11
-30.730917
 21
8.728893
 31
0.0
  0
ARC
  5
F4
330
1F
100
AcDbEntity
  8
0
  6
Continuous
 62
     7
370
    25
100
AcDbCircle
 10
-33.035301
 20
-4.075005
 30
0.0
 40
0.5000000285250076
100
AcDbArc
 50
262.0
 51
351.999948442
  0
LINE
  5
F5
330
1F
100
AcDbEntity
  8
0
  6
Continuous
 62
     7
370
    25
100
AcDbLine
 10
-45.9783725525
 20
-2.7608890485
 30
0.0
 11
-33.1048875544
 21
-4.5701390626
 31
0.0
  0
ARC
  5
F6
330
1F
100
AcDbEntity
  8
0
  6
Continuous
 62
     7
370
    25
100
AcDbCircle
 10
-45.908786
 20
-2.265755
 30
0.0
 40
0.5000000178400222
100
AcDbArc
 50
171.999948442
 51
261.9999999982
  0
LINE
  5
F7
330
1F
100
AcDbEntity
  8
0
  6
Continuous
 62
     7
370
    25
100
AcDbLine
 10
-44.59467
 20
10.677317
 30
0.0
 11
-46.4039199894
 21
-2.1961680015
 31
0.0
  0
ARC
  5
F8
330
1F
100
AcDbEntity
  8
0
  6
Continuous
 62
     7
370
    25
100
AcDbCircle
 10
-44.099536
 20
10.60773
 30
0.0
 40
0.5000000285250006
100
AcDbArc
 50
81.999948442
 51
171.999948442
  0
LINE
  5
F9
330
1F
100
AcDbEntity
  8
0
  6
Continuous
 62
     7
370
    25
100
AcDbLine
 10
-18.949007
 20
-12.164161
 30
0.0
 11
-20.7582579385
 21
-25.037645463
 31
0.0
  0
ARC
  5
FA
330
1F
100
AcDbEntity
  8
0
  6
Continuous
 62
     7
370
    25
100
AcDbCircle
 10
-18.453873
 20
-12.233748
 30
0.0
 40
0.5000000285250029
100
AcDbArc
 50
82.0000619183
 51
171.999948442
  0
LINE
  5
FB
330
1F
100
AcDbEntity
  8
0
  6
Continuous
 62
     7
370
    25
100
AcDbLine
 10
-5.510802
 20
-13.547864
 30
0.0
 11
-18.3842869806
 21
-11.7386138622
 31
0.0
  0
ARC
  5
FC
330
1F
100
AcDbEntity
  8
0
  6
Continuous
 62
     7
370
    25
100
AcDbCircle
 10
-5.580388
 20
-14.042998
 30
0.0
 40
0.4999999031829879
100
AcDbArc
 50
352.0
 51
82.0000619183
  0
LINE
  5
FD
330
1F
100
AcDbEntity
  8
0
  6
Continuous
 62
     7
370
    25
100
AcDbLine
 10
-6.8945049656
 20
-26.9860695505
 30
0.0
 11
-5.0852540615
 21
-14.112584537
 31
0.0
  0
ARC
  5
FE
330
1F
100
AcDbEntity
  8
0
  6
Continuous
 62
     7
370
    25
100
AcDbCircle
 10
-7.3896389846
 20
-26.9164828904
 30
0.0
 40
0.5000000000317096
100
AcDbArc
 50
262.0000619183
 51
351.9999873189
  0
LINE
  5
FF
330
1F
100
AcDbEntity
  8
0
  6
Continuous
 62
     7
370
    25
100
AcDbLine
 10
-20.33271
 20
-25.602366
 30
0.0
 11
-7.459225
 21
-27.411617
 31
0.0
  0
ARC
  5
100
330
1F
100
AcDbEntity
  8
0
  6
Continuous
 62
     7
370
    25
100
AcDbCircle
 10
-20.263124
 20
-25.107232
 30
0.0
 40
0.4999999031829917
100
AcDbArc
 50
172.0
 51
262.0000619183
  0
LINE
  5
101
330
1F
100
AcDbEntity
  8
0
  6
Continuous
 62
     7
370
    25
100
AcDbLine
 10
-82.3238840344
 20
15.9798115505
 30
0.0
 11
-84.1331350344
 21
3.1063265505
 31
0.0
  0
ARC
  5
102
330
1F
100
AcDbEntity
  8
0
  6
Continuous
 62
     7
370
    25
100
AcDbCircle
 10
-81.82875
 20
15.910225
 30
0.0
 40
0.5000000000317052
100
AcDbArc
 50
82.0000619183
 51
171.9999999982
  0
LINE
  5
103
330
1F
100
AcDbEntity
  8
0
  6
Continuous
 62
     7
370
    25
100
AcDbLine
 10
-68.885679
 20
14.596109
 30
0.0
 11
-81.7591639846
 21
16.4053591096
 31
0.0
  0
ARC
  5
104
330
1F
100
AcDbEntity
  8
0
  6
Continuous
 62
     7
370
    25
100
AcDbCircle
 10
-68.955265
 20
14.100975
 30
0.0
 40
0.4999999067486059
100
AcDbArc
 50
351.999948442
 51
82.0000619183
  0
LINE
  5
105
330
1F
100
AcDbEntity
  8
0
  6
Continuous
 62
     7
370
    25
100
AcDbLine
 10
-70.269382
 20
1.157903
 30
0.0
 11
-68.4601311206
 21
14.0313880169
 31
0.0
  0
ARC
  5
106
330
1F
100
AcDbEntity
  8
0
  6
Continuous
 62
     7
370
    25
100
AcDbCircle
 10
-70.764516
 20
1.22749
 30
0.0
 40
0.5000000285250065
100
AcDbArc
 50
262.0000619183
 51
351.999948442
  0
LINE
  5
107
330
1F
100
AcDbEntity
  8
0
  6
Continuous
 62
     7
370
    25
100
AcDbLine
 10
-83.7075875505
 20
2.5416059656
 30
0.0
 11
-70.8341020194
 21
0.7323558622
 31
0.0
  0
ARC
  5
108
330
1F
100
AcDbEntity
  8
0
  6
Continuous
 62
     7
370
    25
100
AcDbCircle
 10
-83.638001
 20
3.03674
 30
0.0
 40
0.5000000000000112
100
AcDbArc
 50
172.0
 51
262.0
  0
LINE
  5
109
330
1F
100
AcDbEntity
  8
0
  6
Continuous
 62
     7
370
    25
100
AcDbLine
 10
62.9251749656
 20
-5.9772685505
 30
0.0
 11
64.7344249374
 21
-18.8507535544
 31
0.0
  0
ARC
  5
10A
330
1F
100
AcDbEntity
  8
0
  6
Continuous
 62
     7
370
    25
100
AcDbCircle
 10
63.420309
 20
-5.907682
 30
0.0
 40
0.5000000000000075
100
AcDbArc
 50
98.0
 51
188.0
  0
LINE
  5
10B
330
1F
100
AcDbEntity
  8
0
  6
Continuous
 62
     7
370
    25
100
AcDbLine
 10
76.224207
 20
-3.603298
 30
0.0
 11
63.3507224495
 21
-5.4125479656
 31
0.0
  0
ARC
  5
10C
330
1F
100
AcDbEntity
  8
0
  6
Continuous
 62
     7
370
    25
100
AcDbCircle
 10
76.293794
 20
-4.098432
 30
0.0
 40
0.5000000285250009
100
AcDbArc
 50
8.0
 51
98.000051558
  0
LINE
  5
10D
330
1F
100
AcDbEntity
  8
0
  6
Continuous
 62
     7
370
    25
100
AcDbLine
 10
78.5981780344
 20
-16.9023304495
 30
0.0
 11
76.7889280626
 21
-4.0288454456
 31
0.0
  0
ARC
  5
10E
330
1F
100
AcDbEntity
  8
0
  6
Continuous
 62
     7
370
    25
100
AcDbCircle
 10
78.103044
 20
-16.971917
 30
0.0
 40
0.5000000000317203
100
AcDbArc
 50
278.0
 51
8.0000000018
  0
LINE
  5
10F
330
1F
100
AcDbEntity
  8
0
  6
Continuous
 62
     7
370
    25
100
AcDbLine
 10
65.299146
 20
-19.276301
 30
0.0
 11
78.1726305505
 21
-17.4670510344
 31
0.0
  0
ARC
  5
110
330
1F
100
AcDbEntity
  8
0
  6
Continuous
 62
     7
370
    25
100
AcDbCircle
 10
65.229559
 20
-18.781167
 30
0.0
 40
0.5000000285249991
100
AcDbArc
 50
188.0
 51
278.000051558
  0
LINE
  5
111
330
1F
100
AcDbEntity
  8
0
  6
Continuous
 62
     7
370
    25
100
AcDbLine
 10
-65.429324
 20
-38.501666
 30
0.0
 11
-52.5558385505
 21
-40.3109170344
 31
0.0
  0
ARC
  5
112
330
1F
100
AcDbEntity
  8
0
  6
Continuous
 62
     7
370
    25
100
AcDbCircle
 10
-65.359737
 20
-38.006532
 30
0.0
 40
0.5000000285250062
100
AcDbArc
 50
172.0000619183
 51
261.999948442
  0
LINE
  5
113
330
1F
100
AcDbEntity
  8
0
  6
Continuous
 62
     7
370
    25
100
AcDbLine
 10
-64.045621
 20
-25.063461
 30
0.0
 11
-65.8548711378
 21
-37.9369459806
 31
0.0
  0
ARC
  5
114
330
1F
100
AcDbEntity
  8
0
  6
Continuous
 62
     7
370
    25
100
AcDbCircle
 10
-63.550487
 20
-25.133047
 30
0.0
 40
0.4999999067486214
100
AcDbArc
 50
81.999948442
 51
172.0000619183
  0
LINE
  5
115
330
1F
100
AcDbEntity
  8
0
  6
Continuous
 62
     7
370
    25
100
AcDbLine
 10
-50.607415
 20
-26.447164
 30
0.0
 11
-63.4809000169
 21
-24.6379131206
 31
0.0
  0
ARC
  5
116
330
1F
100
AcDbEntity
  8
0
  6
Continuous
 62
     7
370
    25
100
AcDbCircle
 10
-50.677002
 20
-26.942298
 30
0.0
 40
0.5000000285250031
100
AcDbArc
 50
352.0
 51
81.999948442
  0
LINE
  5
117
330
1F
100
AcDbEntity
  8
0
  6
Continuous
 62
     7
370
    25
100
AcDbLine
 10
-51.9911179656
 20
-39.8853695505
 30
0.0
 11
-50.1818679374
 21
-27.0118845544
 31
0.0
  0
ARC
  5
118
330
1F
100
AcDbEntity
  8
0
  6
Continuous
 62
     7
370
    25
100
AcDbCircle
 10
-52.486252
 20
-39.815783
 30
0.0
 40
0.5000000000317183
100
AcDbArc
 50
262.0
 51
351.9999999982
  0
LINE
  5
119
330
1F
100
AcDbEntity
  8
0
  6
Continuous
 62
     7
370
    25
100
AcDbLine
 10
-70.950583
 20
34.123527
 30
0.0
 11
-83.8240679806
 21
35.9327771378
 31
0.0
  0
ARC
  5
11A
330
1F
100
AcDbEntity
  8
0
  6
Continuous
 62
     7
370
    25
100
AcDbCircle
 10
-71.020169
 20
33.628393
 30
0.0
 40
0.5000000285249941
100
AcDbArc
 50
351.999948442
 51
82.0000619183
  0
LINE
  5
11B
330
1F
100
AcDbEntity
  8
0
  6
Continuous
 62
     7
370
    25
100
AcDbLine
 10
-72.334286
 20
20.685321
 30
0.0
 11
-70.525035
 21
33.558806
 31
0.0
  0
ARC
  5
11C
330
1F
100
AcDbEntity
  8
0
  6
Continuous
 62
     7
370
    25
100
AcDbCircle
 10
-72.82942
 20
20.754908
 30
0.0
 40
0.5000000285249979
100
AcDbArc
 50
262.0000619183
 51
351.999948442
  0
LINE
  5
11D
330
1F
100
AcDbEntity
  8
0
  6
Continuous
 62
     7
370
    25
100
AcDbLine
 10
-85.7724905505
 20
22.0690239656
 30
0.0
 11
-72.8990060194
 21
20.2597738622
 31
0.0
  0
ARC
  5
11E
330
1F
100
AcDbEntity
  8
0
  6
Continuous
 62
     7
370
    25
100
AcDbCircle
 10
-85.702904
 20
22.564158
 30
0.0
 40
0.5000000035933837
100
AcDbArc
 50
171.999948442
 51
261.9999999982
  0
LINE
  5
11F
330
1F
100
AcDbEntity
  8
0
  6
Continuous
 62
     7
370
    25
100
AcDbLine
 10
-84.388788
 20
35.50723
 30
0.0
 11
-86.1980379753
 21
22.6337449965
 31
0.0
  0
ARC
  5
120
330
1F
100
AcDbEntity
  8
0
  6
Continuous
 62
     7
370
    25
100
AcDbCircle
 10
-83.893654
 20
35.437643
 30
0.0
 40
0.5000000285250085
100
AcDbArc
 50
82.0000619183
 51
171.999948442
  0
LINE
  5
121
330
1F
100
AcDbEntity
  8
0
  6
Continuous
 62
     7
370
    25
100
AcDbLine
 10
-34.605073
 20
15.382826
 30
0.0
 11
-32.7958229656
 21
28.2563114495
 31
0.0
  0
ARC
  5
122
330
1F
100
AcDbEntity
  8
0
  6
Continuous
 62
     7
370
    25
100
AcDbCircle
 10
-35.100207
 20
15.452413
 30
0.0
 40
0.5000000285250065
100
AcDbArc
 50
262.0000619183
 51
351.999948442
  0
LINE
  5
123
330
1F
100
AcDbEntity
  8
0
  6
Continuous
 62
     7
370
    25
100
AcDbLine
 10
-48.043278
 20
16.766529
 30
0.0
 11
-35.1697930194
 21
14.9572788622
 31
0.0
  0
ARC
  5
124
330
1F
100
AcDbEntity
  8
0
  6
Continuous
 62
     7
370
    25
100
AcDbCircle
 10
-47.973692
 20
17.261663
 30
0.0
 40
0.4999999170139979
100
AcDbArc
 50
172.0
 51
262.0000619183
  0
LINE
  5
125
330
1F
100
AcDbEntity
  8
0
  6
Continuous
 62
     7
370
    25
100
AcDbLine
 10
-46.6595750344
 20
30.2047345505
 30
0.0
 11
-48.4688259522
 21
17.3312495389
 31
0.0
  0
ARC
  5
126
330
1F
100
AcDbEntity
  8
0
  6
Continuous
 62
     7
370
    25
100
AcDbCircle
 10
-46.164441
 20
30.135148
 30
0.0
 40
0.5000000000000153
100
AcDbArc
 50
82.0
 51
172.0
  0
LINE
  5
127
330
1F
100
AcDbEntity
  8
0
  6
Continuous
 62
     7
370
    25
100
AcDbLine
 10
-33.2213704495
 20
28.8210320344
 30
0.0
 11
-46.0948544495
 21
30.6302820344
 31
0.0
  0
ARC
  5
128
330
1F
100
AcDbEntity
  8
0
  6
Continuous
 62
     7
370
    25
100
AcDbCircle
 10
-33.290957
 20
28.325898
 30
0.0
 40
0.5000000000158661
100
AcDbArc
 50
352.0
 51
81.9999999982
  0
LINE
  5
129
330
1F
100
AcDbEntity
  8
0
  6
Continuous
 62
     7
370
    25
100
AcDbLine
 10
59.1472271237
 20
18.8384470174
 30
0.0
 11
57.3379770344
 21
31.7119325505
 31
0.0
  0
ARC
  5
12A
330
1F
100
AcDbEntity
  8
0
  6
Continuous
 62
     7
370
    25
100
AcDbCircle
 10
58.652093
 20
18.768861
 30
0.0
 40
0.5000000285250027
100
AcDbArc
 50
278.000051558
 51
7.9999380813
  0
LINE
  5
12B
330
1F
100
AcDbEntity
  8
0
  6
Continuous
 62
     7
370
    25
100
AcDbLine
 10
45.848195
 20
16.464477
 30
0.0
 11
58.72168
 21
18.273727
 31
0.0
  0
ARC
  5
12C
330
1F
100
AcDbEntity
  8
0
  6
Continuous
 62
     7
370
    25
100
AcDbCircle
 10
45.778608
 20
16.959611
 30
0.0
 40
0.5000000285249991
100
AcDbArc
 50
188.0
 51
278.000051558
  0
LINE
  5
12D
330
1F
100
AcDbEntity
  8
0
  6
Continuous
 62
     7
370
    25
100
AcDbLine
 10
43.4742238904
 20
29.7635089846
 30
0.0
 11
45.2834739374
 21
16.8900244456
 31
0.0
  0
ARC
  5
12E
330
1F
100
AcDbEntity
  8
0
  6
Continuous
 62
     7
370
    25
100
AcDbCircle
 10
43.969358
 20
29.833095
 30
0.0
 40
0.5000000000143281
100
AcDbArc
 50
98.0
 51
187.9999380813
  0
LINE
  5
12F
330
1F
100
AcDbEntity
  8
0
  6
Continuous
 62
     7
370
    25
100
AcDbLine
 10
56.7732564495
 20
32.1374800344
 30
0.0
 11
43.8997714495
 21
30.3282290344
 31
0.0
  0
ARC
  5
130
330
1F
100
AcDbEntity
  8
0
  6
Continuous
 62
     7
370
    25
100
AcDbCircle
 10
56.842843
 20
31.642346
 30
0.0
 40
0.5000000000158545
100
AcDbArc
 50
8.0
 51
98.0000000018
  0
LINE
  5
131
330
1F
100
AcDbEntity
  8
0
  6
Continuous
 62
     7
370
    25
100
AcDbLine
 10
-27.794968
 20
27.553487
 30
0.0
 11
-29.6042180344
 21
14.6800015505
 31
0.0
  0
ARC
  5
132
330
1F
100
AcDbEntity
  8
0
  6
Continuous
 62
     7
370
    25
100
AcDbCircle
 10
-27.2998340194
 20
27.4838998622
 30
0.0
 40
0.5000000285250049
100
AcDbArc
 50
82.0000619183
 51
171.9999324939
  0
LINE
  5
133
330
1F
100
AcDbEntity
  8
0
  6
Continuous
 62
     7
370
    25
100
AcDbLine
 10
-14.356763
 20
26.169784
 30
0.0
 11
-27.230248
 21
27.979034
 31
0.0
  0
ARC
  5
134
330
1F
100
AcDbEntity
  8
0
  6
Continuous
 62
     7
370
    25
100
AcDbCircle
 10
-14.426349
 20
25.67465
 30
0.0
 40
0.4999999170139944
100
AcDbArc
 50
352.0
 51
82.0000619183
  0
LINE
  5
135
330
1F
100
AcDbEntity
  8
0
  6
Continuous
 62
     7
370
    25
100
AcDbLine
 10
-15.740466
 20
12.731579
 30
0.0
 11
-13.9312150478
 21
25.6050634611
 31
0.0
  0
ARC
  5
136
330
1F
100
AcDbEntity
  8
0
  6
Continuous
 62
     7
370
    25
100
AcDbCircle
 10
-16.2356
 20
12.801165
 30
0.0
 40
0.4999998893519878
100
AcDbArc
 50
262.0000619183
 51
352.0000619183
  0
LINE
  5
137
330
1F
100
AcDbEntity
  8
0
  6
Continuous
 62
     7
370
    25
100
AcDbLine
 10
-29.1786705505
 20
14.1152809656
 30
0.0
 11
-16.305186
 21
12.306031
 31
0.0
  0
ARC
  5
138
330
1F
100
AcDbEntity
  8
0
  6
Continuous
 62
     7
370
    25
100
AcDbCircle
 10
-29.109084
 20
14.610415
 30
0.0
 40
0.5000000000158608
100
AcDbArc
 50
172.0
 51
261.9999999982
  0
LINE
  5
139
330
1F
100
AcDbEntity
  8
0
  6
Continuous
 62
     7
370
    25
100
AcDbLine
 10
31.9770149656
 20
8.9104664495
 30
0.0
 11
33.7862659656
 21
-3.9630185505
 31
0.0
  0
ARC
  5
13A
330
1F
100
AcDbEntity
  8
0
  6
Continuous
 62
     7
370
    25
100
AcDbCircle
 10
32.472149
 20
8.980053
 30
0.0
 40
0.500000000031716
100
AcDbArc
 50
98.0
 51
188.0000000018
  0
LINE
  5
13B
330
1F
100
AcDbEntity
  8
0
  6
Continuous
 62
     7
370
    25
100
AcDbLine
 10
45.2760479846
 20
11.2844371096
 30
0.0
 11
32.4025624495
 21
9.4751870344
 31
0.0
  0
ARC
  5
13C
330
1F
100
AcDbEntity
  8
0
  6
Continuous
 62
     7
370
    25
100
AcDbCircle
 10
45.345634
 20
10.789303
 30
0.0
 40
0.500000000028634
100
AcDbArc
 50
8.0
 51
97.9999380813
  0
LINE
  5
13D
330
1F
100
AcDbEntity
  8
0
  6
Continuous
 62
     7
370
    25
100
AcDbLine
 10
47.650019
 20
-2.014595
 30
0.0
 11
45.8407680344
 21
10.8588895505
 31
0.0
  0
ARC
  5
13E
330
1F
100
AcDbEntity
  8
0
  6
Continuous
 62
     7
370
    25
100
AcDbCircle
 10
47.154885
 20
-2.084182
 30
0.0
 40
0.5000000285250005
100
AcDbArc
 50
278.0
 51
8.000051558
  0
LINE
  5
13F
330
1F
100
AcDbEntity
  8
0
  6
Continuous
 62
     7
370
    25
100
AcDbLine
 10
34.3509860154
 20
-4.3885661096
 30
0.0
 11
47.2244715544
 21
-2.5793160626
 31
0.0
  0
ARC
  5
140
330
1F
100
AcDbEntity
  8
0
  6
Continuous
 62
     7
370
    25
100
AcDbCircle
 10
34.2814
 20
-3.893432
 30
0.0
 40
0.5000000000000074
100
AcDbArc
 50
188.0
 51
277.9999380817
  0
LINE
  5
141
330
1F
100
AcDbEntity
  8
0
  6
Continuous
 62
     7
370
    25
100
AcDbLine
 10
60.010847
 20
-25.119151
 30
0.0
 11
47.1373624495
 21
-26.9284009656
 31
0.0
  0
ARC
  5
142
330
1F
100
AcDbEntity
  8
0
  6
Continuous
 62
     7
370
    25
100
AcDbCircle
 10
60.080434
 20
-25.614285
 30
0.0
 40
0.5000000285250021
100
AcDbArc
 50
8.0
 51
98.000051558
  0
LINE
  5
143
330
1F
100
AcDbEntity
  8
0
  6
Continuous
 62
     7
370
    25
100
AcDbLine
 10
62.3848180344
 20
-38.4181834495
 30
0.0
 11
60.5755680626
 21
-25.5446984456
 31
0.0
  0
ARC
  5
144
330
1F
100
AcDbEntity
  8
0
  6
Continuous
 62
     7
370
    25
100
AcDbCircle
 10
61.889684
 20
-38.48777
 30
0.0
 40
0.5000000000316911
100
AcDbArc
 50
278.0
 51
8.0000000018
  0
LINE
  5
145
330
1F
100
AcDbEntity
  8
0
  6
Continuous
 62
     7
370
    25
100
AcDbLine
 10
49.085786
 20
-40.792154
 30
0.0
 11
61.9592705505
 21
-38.9829040344
 31
0.0
  0
ARC
  5
146
330
1F
100
AcDbEntity
  8
0
  6
Continuous
 62
     7
370
    25
100
AcDbCircle
 10
49.016199
 20
-40.29702
 30
0.0
 40
0.5000000285249964
100
AcDbArc
 50
187.9999380817
 51
278.000051558
  0
LINE
  5
147
330
1F
100
AcDbEntity
  8
0
  6
Continuous
 62
     7
370
    25
100
AcDbLine
 10
46.7118149656
 20
-27.4931215505
 30
0.0
 11
48.5210648622
 21
-40.3666060194
 31
0.0
  0
ARC
  5
148
330
1F
100
AcDbEntity
  8
0
  6
Continuous
 62
     7
370
    25
100
AcDbCircle
 10
47.206949
 20
-27.423535
 30
0.0
 40
0.5000000000000073
100
AcDbArc
 50
98.0
 51
188.0
  0
LINE
  5
149
330
1F
100
AcDbEntity
  8
0
  6
Continuous
 62
     7
370
    25
100
AcDbLine
 10
64.1406554495
 20
13.9356870344
 30
0.0
 11
51.2671700169
 21
12.1264358794
 31
0.0
  0
ARC
  5
14A
330
1F
100
AcDbEntity
  8
0
  6
Continuous
 62
     7
370
    25
100
AcDbCircle
 10
64.2102418904
 20
13.4405529846
 30
0.0
 40
0.5000000000317077
100
AcDbArc
 50
7.9999380817
 51
97.9999873225
  0
LINE
  5
14B
330
1F
100
AcDbEntity
  8
0
  6
Continuous
 62
     7
370
    25
100
AcDbLine
 10
66.514626
 20
0.636654
 30
0.0
 11
64.705376
 21
13.510139
 31
0.0
  0
ARC
  5
14C
330
1F
100
AcDbEntity
  8
0
  6
Continuous
 62
     7
370
    25
100
AcDbCircle
 10
66.019492
 20
0.567068
 30
0.0
 40
0.4999999031829958
100
AcDbArc
 50
278.0
 51
7.9999380817
  0
LINE
  5
14D
330
1F
100
AcDbEntity
  8
0
  6
Continuous
 62
     7
370
    25
100
AcDbLine
 10
53.2155935505
 20
-1.7373160344
 30
0.0
 11
66.089078537
 21
0.0719340615
 31
0.0
  0
ARC
  5
14E
330
1F
100
AcDbEntity
  8
0
  6
Continuous
 62
     7
370
    25
100
AcDbCircle
 10
53.146007
 20
-1.242182
 30
0.0
 40
0.5000000000317103
100
AcDbArc
 50
188.0
 51
278.0000000018
  0
LINE
  5
14F
330
1F
100
AcDbEntity
  8
0
  6
Continuous
 62
     7
370
    25
100
AcDbLine
 10
50.841623
 20
11.561716
 30
0.0
 11
52.6508729656
 21
-1.3117685505
 31
0.0
  0
ARC
  5
150
330
1F
100
AcDbEntity
  8
0
  6
Continuous
 62
     7
370
    25
100
AcDbCircle
 10
51.336757
 20
11.631302
 30
0.0
 40
0.499999906748609
100
AcDbArc
 50
98.000051558
 51
187.9999380817
  0
LINE
  5
151
330
1F
100
AcDbEntity
  8
0
  6
Continuous
 62
     7
370
    25
100
AcDbLine
 10
-76.9265305525
 20
-17.6486240485
 30
0.0
 11
-64.0530455544
 21
-19.4578740626
 31
0.0
  0
ARC
  5
152
330
1F
100
AcDbEntity
  8
0
  6
Continuous
 62
     7
370
    25
100
AcDbCircle
 10
-76.856944
 20
-17.15349
 30
0.0
 40
0.5000000285250069
100
AcDbArc
 50
171.999948442
 51
261.9999999982
  0
LINE
  5
153
330
1F
100
AcDbEntity
  8
0
  6
Continuous
 62
     7
370
    25
100
AcDbLine
 10
-75.542827
 20
-4.210418
 30
0.0
 11
-77.352078
 21
-17.083903
 31
0.0
  0
ARC
  5
154
330
1F
100
AcDbEntity
  8
0
  6
Continuous
 62
     7
370
    25
100
AcDbCircle
 10
-75.047693
 20
-4.280005
 30
0.0
 40
0.500000028525007
100
AcDbArc
 50
82.0
 51
171.999948442
  0
LINE
  5
155
330
1F
100
AcDbEntity
  8
0
  6
Continuous
 62
     7
370
    25
100
AcDbLine
 10
-62.1046214495
 20
-5.5941209656
 30
0.0
 11
-74.9781064456
 21
-3.7848709374
 31
0.0
  0
ARC
  5
156
330
1F
100
AcDbEntity
  8
0
  6
Continuous
 62
     7
370
    25
100
AcDbCircle
 10
-62.174208
 20
-6.089255
 30
0.0
 40
0.5000000000000148
100
AcDbArc
 50
352.0
 51
82.0
  0
LINE
  5
157
330
1F
100
AcDbEntity
  8
0
  6
Continuous
 62
     7
370
    25
100
AcDbLine
 10
-63.488325
 20
-19.032327
 30
0.0
 11
-61.6790739656
 21
-6.1588415505
 31
0.0
  0
ARC
  5
158
330
1F
100
AcDbEntity
  8
0
  6
Continuous
 62
     7
370
    25
100
AcDbCircle
 10
-63.983459
 20
-18.96274
 30
0.0
 40
0.5000000285250057
100
AcDbArc
 50
262.0
 51
351.999948442
  0
LINE
  5
159
330
1F
100
AcDbEntity
  8
0
  6
Continuous
 62
     7
370
    25
100
AcDbLine
 10
-64.8429795505
 20
-0.1096410344
 30
0.0
 11
-51.9694945505
 21
-1.9188920344
 31
0.0
  0
ARC
  5
15A
330
1F
100
AcDbEntity
  8
0
  6
Continuous
 62
     7
370
    25
100
AcDbCircle
 10
-64.773393
 20
0.385493
 30
0.0
 40
0.5000000000000241
100
AcDbArc
 50
172.0
 51
262.0
  0
LINE
  5
15B
330
1F
100
AcDbEntity
  8
0
  6
Continuous
 62
     7
370
    25
100
AcDbLine
 10
-63.4592770344
 20
13.3285645505
 30
0.0
 11
-65.2685270344
 21
0.4550795505
 31
0.0
  0
ARC
  5
15C
330
1F
100
AcDbEntity
  8
0
  6
Continuous
 62
     7
370
    25
100
AcDbCircle
 10
-62.964143
 20
13.258978
 30
0.0
 40
0.5000000000316984
100
AcDbArc
 50
82.0
 51
171.9999999982
  0
LINE
  5
15D
330
1F
100
AcDbEntity
  8
0
  6
Continuous
 62
     7
370
    25
100
AcDbLine
 10
-50.0210714495
 20
11.9448610344
 30
0.0
 11
-62.8945564495
 21
13.7541120344
 31
0.0
  0
ARC
  5
15E
330
1F
100
AcDbEntity
  8
0
  6
Continuous
 62
     7
370
    25
100
AcDbCircle
 10
-50.090658
 20
11.449727
 30
0.0
 40
0.5000000000317104
100
AcDbArc
 50
352.0
 51
81.9999999982
  0
LINE
  5
15F
330
1F
100
AcDbEntity
  8
0
  6
Continuous
 62
     7
370
    25
100
AcDbLine
 10
-51.4047739656
 20
-1.4933445505
 30
0.0
 11
-49.5955239656
 21
11.3801404495
 31
0.0
  0
ARC
  5
160
330
1F
100
AcDbEntity
  8
0
  6
Continuous
 62
     7
370
    25
100
AcDbCircle
 10
-51.899908
 20
-1.423758
 30
0.0
 40
0.5000000000317124
100
AcDbArc
 50
262.0
 51
351.9999999982
  0
LINE
  5
161
330
1F
100
AcDbEntity
  8
0
  6
Continuous
 62
     7
370
    25
100
AcDbLine
 10
-65.524181
 20
32.855982
 30
0.0
 11
-67.3334310344
 21
19.9824975505
 31
0.0
  0
ARC
  5
162
330
1F
100
AcDbEntity
  8
0
  6
Continuous
 62
     7
370
    25
100
AcDbCircle
 10
-65.029047
 20
32.786395
 30
0.0
 40
0.5000000285249911
100
AcDbArc
 50
81.999948442
 51
171.999948442
  0
LINE
  5
163
330
1F
100
AcDbEntity
  8
0
  6
Continuous
 62
     7
370
    25
100
AcDbLine
 10
-52.085975
 20
31.472279
 30
0.0
 11
-64.95946
 21
33.281529
 31
0.0
  0
ARC
  5
164
330
1F
100
AcDbEntity
  8
0
  6
Continuous
 62
     7
370
    25
100
AcDbCircle
 10
-52.155562
 20
30.977145
 30
0.0
 40
0.5000000285250062
100
AcDbArc
 50
352.0
 51
81.999948442
  0
LINE
  5
165
330
1F
100
AcDbEntity
  8
0
  6
Continuous
 62
     7
370
    25
100
AcDbLine
 10
-53.4696779656
 20
18.0340734495
 30
0.0
 11
-51.6604279374
 21
30.9075584456
 31
0.0
  0
ARC
  5
166
330
1F
100
AcDbEntity
  8
0
  6
Continuous
 62
     7
370
    25
100
AcDbCircle
 10
-53.964812
 20
18.10366
 30
0.0
 40
0.5000000000000143
100
AcDbArc
 50
262.0
 51
352.0
  0
LINE
  5
167
330
1F
100
AcDbEntity
  8
0
  6
Continuous
 62
     7
370
    25
100
AcDbLine
 10
-66.9078835505
 20
19.4177769656
 30
0.0
 11
-54.0343985505
 21
17.6085259656
 31
0.0
  0
ARC
  5
168
330
1F
100
AcDbEntity
  8
0
  6
Continuous
 62
     7
370
    25
100
AcDbCircle
 10
-66.838297
 20
19.912911
 30
0.0
 40
0.5000000000158615
100
AcDbArc
 50
172.0
 51
261.9999999982
  0
LINE
  5
169
330
1F
100
AcDbEntity
  8
0
  6
Continuous
 62
     7
370
    25
100
AcDbLine
 10
5.7450108904
 20
24.4610139846
 30
0.0
 11
7.5542609656
 21
11.5875284495
 31
0.0
  0
ARC
  5
16A
330
1F
100
AcDbEntity
  8
0
  6
Continuous
 62
     7
370
    25
100
AcDbCircle
 10
6.240145
 20
24.5306
 30
0.0
 40
0.5000000000000182
100
AcDbArc
 50
98.0
 51
187.9999380817
  0
LINE
  5
16B
330
1F
100
AcDbEntity
  8
0
  6
Continuous
 62
     7
370
    25
100
AcDbLine
 10
19.0440434495
 20
26.8349850344
 30
0.0
 11
6.1705584495
 21
25.0257340344
 31
0.0
  0
ARC
  5
16C
330
1F
100
AcDbEntity
  8
0
  6
Continuous
 62
     7
370
    25
100
AcDbCircle
 10
19.11363
 20
26.339851
 30
0.0
 40
0.5000000000317122
100
AcDbArc
 50
8.0
 51
98.0000000018
  0
LINE
  5
16D
330
1F
100
AcDbEntity
  8
0
  6
Continuous
 62
     7
370
    25
100
AcDbLine
 10
21.418014
 20
13.535952
 30
0.0
 11
19.6087640344
 21
26.4094375505
 31
0.0
  0
ARC
  5
16E
330
1F
100
AcDbEntity
  8
0
  6
Continuous
 62
     7
370
    25
100
AcDbCircle
 10
20.92288
 20
13.466366
 30
0.0
 40
0.4999999067486115
100
AcDbArc
 50
278.000051558
 51
7.9999380817
  0
LINE
  5
16F
330
1F
100
AcDbEntity
  8
0
  6
Continuous
 62
     7
370
    25
100
AcDbLine
 10
8.1189815505
 20
11.1619809656
 30
0.0
 11
20.9924669831
 21
12.9712321206
 31
0.0
  0
ARC
  5
170
330
1F
100
AcDbEntity
  8
0
  6
Continuous
 62
     7
370
    25
100
AcDbCircle
 10
8.049395
 20
11.657115
 30
0.0
 40
0.5000000000317086
100
AcDbArc
 50
188.0
 51
278.0000000018
  0
LINE
  5
171
330
1F
100
AcDbEntity
  8
0
  6
Continuous
 62
     7
370
    25
100
AcDbLine
 10
-58.0619245505
 20
-20.2998710344
 30
0.0
 11
-45.1884399927
 21
-22.1091219483
 31
0.0
  0
ARC
  5
172
330
1F
100
AcDbEntity
  8
0
  6
Continuous
 62
     7
370
    25
100
AcDbCircle
 10
-57.9923378904
 20
-19.8047370154
 30
0.0
 40
0.5000000000158713
100
AcDbArc
 50
172.0000619183
 51
261.9999873189
  0
LINE
  5
173
330
1F
100
AcDbEntity
  8
0
  6
Continuous
 62
     7
370
    25
100
AcDbLine
 10
-56.678222
 20
-6.861666
 30
0.0
 11
-58.487472
 21
-19.735151
 31
0.0
  0
ARC
  5
174
330
1F
100
AcDbEntity
  8
0
  6
Continuous
 62
     7
370
    25
100
AcDbCircle
 10
-56.183088
 20
-6.931252
 30
0.0
 40
0.4999999241452413
100
AcDbArc
 50
81.999948442
 51
172.0000619183
  0
LINE
  5
175
330
1F
100
AcDbEntity
  8
0
  6
Continuous
 62
     7
370
    25
100
AcDbLine
 10
-43.2400164495
 20
-8.2453689656
 30
0.0
 11
-56.1135010145
 21
-6.4361181034
 31
0.0
  0
ARC
  5
176
330
1F
100
AcDbEntity
  8
0
  6
Continuous
 62
     7
370
    25
100
AcDbCircle
 10
-43.309603
 20
-8.740503
 30
0.0
 40
0.500000000015852
100
AcDbArc
 50
352.0000619183
 51
81.9999999982
  0
LINE
  5
177
330
1F
100
AcDbEntity
  8
0
  6
Continuous
 62
     7
370
    25
100
AcDbLine
 10
-44.6237189311
 20
-21.6835740097
 30
0.0
 11
-42.8144688904
 21
-8.8100890154
 31
0.0
  0
ARC
  5
178
330
1F
100
AcDbEntity
  8
0
  6
Continuous
 62
     7
370
    25
100
AcDbCircle
 10
-45.118853
 20
-21.613988
 30
0.0
 40
0.4999999763351197
100
AcDbArc
 50
261.999948442
 51
352.0000619183
  0
LINE
  5
179
330
1F
100
AcDbEntity
  8
0
  6
Continuous
 62
     7
370
    25
100
AcDbLine
 10
22.0043561096
 20
-24.8560729846
 30
0.0
 11
20.1951060344
 21
-11.9825874495
 31
0.0
  0
ARC
  5
17A
330
1F
100
AcDbEntity
  8
0
  6
Continuous
 62
     7
370
    25
100
AcDbCircle
 10
21.509222
 20
-24.925659
 30
0.0
 40
0.5000000000286358
100
AcDbArc
 50
278.0
 51
7.9999380813
  0
LINE
  5
17B
330
1F
100
AcDbEntity
  8
0
  6
Continuous
 62
     7
370
    25
100
AcDbLine
 10
8.7053235505
 20
-27.2300440344
 30
0.0
 11
21.5788085505
 21
-25.4207930344
 31
0.0
  0
ARC
  5
17C
330
1F
100
AcDbEntity
  8
0
  6
Continuous
 62
     7
370
    25
100
AcDbCircle
 10
8.635737
 20
-26.73491
 30
0.0
 40
0.500000000031701
100
AcDbArc
 50
188.0
 51
278.0000000018
  0
LINE
  5
17D
330
1F
100
AcDbEntity
  8
0
  6
Continuous
 62
     7
370
    25
100
AcDbLine
 10
6.3313528904
 20
-13.9310110154
 30
0.0
 11
8.1406029656
 21
-26.8044965505
 31
0.0
  0
ARC
  5
17E
330
1F
100
AcDbEntity
  8
0
  6
Continuous
 62
     7
370
    25
100
AcDbCircle
 10
6.826487
 20
-13.861425
 30
0.0
 40
0.5000000035906789
100
AcDbArc
 50
98.000051558
 51
187.9999380813
  0
LINE
  5
17F
330
1F
100
AcDbEntity
  8
0
  6
Continuous
 62
     7
370
    25
100
AcDbLine
 10
19.6303854495
 20
-11.5570399656
 30
0.0
 11
6.7569000035
 21
-13.3662910247
 31
0.0
  0
ARC
  5
180
330
1F
100
AcDbEntity
  8
0
  6
Continuous
 62
     7
370
    25
100
AcDbCircle
 10
19.699972
 20
-12.052174
 30
0.0
 40
0.5000000000000113
100
AcDbArc
 50
8.0
 51
98.0
  0
LINE
  5
181
330
1F
100
AcDbEntity
  8
0
  6
Continuous
 62
     7
370
    25
100
AcDbLine
 10
-21.3361329656
 20
-44.1936465505
 30
0.0
 11
-19.5268820615
 21
-31.320161537
 31
0.0
  0
ARC
  5
182
330
1F
100
AcDbEntity
  8
0
  6
Continuous
 62
     7
370
    25
100
AcDbCircle
 10
-21.831267
 20
-44.12406
 30
0.0
 40
0.5000000000317096
100
AcDbArc
 50
262.0
 51
351.9999999982
  0
LINE
  5
183
330
1F
100
AcDbEntity
  8
0
  6
Continuous
 62
     7
370
    25
100
AcDbLine
 10
-34.774338
 20
-42.809944
 30
0.0
 11
-21.9008535505
 21
-44.6191940344
 31
0.0
  0
ARC
  5
184
330
1F
100
AcDbEntity
  8
0
  6
Continuous
 62
     7
370
    25
100
AcDbCircle
 10
-34.704751
 20
-42.31481
 30
0.0
 40
0.5000000285250112
100
AcDbArc
 50
172.0
 51
261.999948442
  0
LINE
  5
185
330
1F
100
AcDbEntity
  8
0
  6
Continuous
 62
     7
370
    25
100
AcDbLine
 10
-33.3906350344
 20
-29.3717384495
 30
0.0
 11
-35.1998850626
 21
-42.2452234456
 31
0.0
  0
ARC
  5
186
330
1F
100
AcDbEntity
  8
0
  6
Continuous
 62
     7
370
    25
100
AcDbCircle
 10
-32.8955010154
 20
-29.4413251096
 30
0.0
 40
0.5000000000317085
100
AcDbArc
 50
82.0000619183
 51
171.9999873189
  0
LINE
  5
187
330
1F
100
AcDbEntity
  8
0
  6
Continuous
 62
     7
370
    25
100
AcDbLine
 10
-19.95243
 20
-30.755441
 30
0.0
 11
-32.825915
 21
-28.946191
 31
0.0
  0
ARC
  5
188
330
1F
100
AcDbEntity
  8
0
  6
Continuous
 62
     7
370
    25
100
AcDbCircle
 10
-20.022016
 20
-31.250575
 30
0.0
 40
0.4999999031829948
100
AcDbArc
 50
352.0
 51
82.0000619183
  0
LINE
  5
189
330
1F
100
AcDbEntity
  8
0
  6
Continuous
 62
     7
370
    25
100
AcDbLine
 10
31.7139374495
 20
-29.0960229656
 30
0.0
 11
18.8404524495
 21
-30.9052729656
 31
0.0
  0
ARC
  5
18A
330
1F
100
AcDbEntity
  8
0
  6
Continuous
 62
     7
370
    25
100
AcDbCircle
 10
31.783524
 20
-29.591157
 30
0.0
 40
0.5000000000000109
100
AcDbArc
 50
8.0
 51
98.0
  0
LINE
  5
18B
330
1F
100
AcDbEntity
  8
0
  6
Continuous
 62
     7
370
    25
100
AcDbLine
 10
34.0879080344
 20
-42.3950554495
 30
0.0
 11
32.2786580344
 21
-29.5215704495
 31
0.0
  0
ARC
  5
18C
330
1F
100
AcDbEntity
  8
0
  6
Continuous
 62
     7
370
    25
100
AcDbCircle
 10
33.592774
 20
-42.464642
 30
0.0
 40
0.5000000035933767
100
AcDbArc
 50
278.000051558
 51
8.0000000018
  0
LINE
  5
18D
330
1F
100
AcDbEntity
  8
0
  6
Continuous
 62
     7
370
    25
100
AcDbLine
 10
20.788876
 20
-44.769026
 30
0.0
 11
33.6623609965
 21
-42.9597759753
 31
0.0
  0
ARC
  5
18E
330
1F
100
AcDbEntity
  8
0
  6
Continuous
 62
     7
370
    25
100
AcDbCircle
 10
20.719289
 20
-44.273892
 30
0.0
 40
0.5000000285250031
100
AcDbArc
 50
188.0
 51
278.000051558
  0
LINE
  5
18F
330
1F
100
AcDbEntity
  8
0
  6
Continuous
 62
     7
370
    25
100
AcDbLine
 10
18.4149049656
 20
-31.4699935505
 30
0.0
 11
20.2241549374
 21
-44.3434785544
 31
0.0
  0
ARC
  5
190
330
1F
100
AcDbEntity
  8
0
  6
Continuous
 62
     7
370
    25
100
AcDbCircle
 10
18.910039
 20
-31.400407
 30
0.0
 40
0.5000000000317082
100
AcDbArc
 50
98.0
 51
188.0000000018
  0
LINE
  5
191
330
1F
100
AcDbEntity
  8
0
  6
Continuous
 62
     7
370
    25
100
AcDbLine
 10
15.4863805505
 20
-7.0398130344
 30
0.0
 11
28.3598655505
 21
-5.2305630344
 31
0.0
  0
ARC
  5
192
330
1F
100
AcDbEntity
  8
0
  6
Continuous
 62
     7
370
    25
100
AcDbCircle
 10
15.416794
 20
-6.544679
 30
0.0
 40
0.5000000285249995
100
AcDbArc
 50
188.000051558
 51
278.0000000018
  0
LINE
  5
193
330
1F
100
AcDbEntity
  8
0
  6
Continuous
 62
     7
370
    25
100
AcDbLine
 10
13.11241
 20
6.259219
 30
0.0
 11
14.92166
 21
-6.614266
 31
0.0
  0
ARC
  5
194
330
1F
100
AcDbEntity
  8
0
  6
Continuous
 62
     7
370
    25
100
AcDbCircle
 10
13.607544
 20
6.328805
 30
0.0
 40
0.4999999067486129
100
AcDbArc
 50
98.000051558
 51
187.9999380817
  0
LINE
  5
195
330
1F
100
AcDbEntity
  8
0
  6
Continuous
 62
     7
370
    25
100
AcDbLine
 10
26.411442
 20
8.63319
 30
0.0
 11
13.5379570169
 21
6.8239388794
 31
0.0
  0
ARC
  5
196
330
1F
100
AcDbEntity
  8
0
  6
Continuous
 62
     7
370
    25
100
AcDbCircle
 10
26.481029
 20
8.138056
 30
0.0
 40
0.5000000285250027
100
AcDbArc
 50
8.0
 51
98.000051558
  0
LINE
  5
197
330
1F
100
AcDbEntity
  8
0
  6
Continuous
 62
     7
370
    25
100
AcDbLine
 10
28.7854131096
 20
-4.6658429846
 30
0.0
 11
26.9761630626
 21
8.2076425544
 31
0.0
  0
ARC
  5
198
330
1F
100
AcDbEntity
  8
0
  6
Continuous
 62
     7
370
    25
100
AcDbCircle
 10
28.290279
 20
-4.735429
 30
0.0
 40
0.5000000000286323
100
AcDbArc
 50
278.0
 51
7.9999380813
  0
LINE
  5
199
330
1F
100
AcDbEntity
  8
0
  6
Continuous
 62
     7
370
    25
100
AcDbLine
 10
-13.675562
 20
-6.795839
 30
0.0
 11
-11.866311
 21
6.077646
 31
0.0
  0
ARC
  5
19A
330
1F
100
AcDbEntity
  8
0
  6
Continuous
 62
     7
370
    25
100
AcDbCircle
 10
-14.170696
 20
-6.726253
 30
0.0
 40
0.4999998893519885
100
AcDbArc
 50
262.0000619183
 51
352.0000619183
  0
LINE
  5
19B
330
1F
100
AcDbEntity
  8
0
  6
Continuous
 62
     7
370
    25
100
AcDbLine
 10
-27.1137675505
 20
-5.4121360344
 30
0.0
 11
-14.240282
 21
-7.221387
 31
0.0
  0
ARC
  5
19C
330
1F
100
AcDbEntity
  8
0
  6
Continuous
 62
     7
370
    25
100
AcDbCircle
 10
-27.0441808904
 20
-4.9170020154
 30
0.0
 40
0.5000000000317144
100
AcDbArc
 50
172.0000619183
 51
261.9999873189
  0
LINE
  5
19D
330
1F
100
AcDbEntity
  8
0
  6
Continuous
 62
     7
370
    25
100
AcDbLine
 10
-25.730064
 20
8.026069
 30
0.0
 11
-27.539315
 21
-4.847416
 31
0.0
  0
ARC
  5
19E
330
1F
100
AcDbEntity
  8
0
  6
Continuous
 62
     7
370
    25
100
AcDbCircle
 10
-25.23493
 20
7.956483
 30
0.0
 40
0.4999998893519878
100
AcDbArc
 50
82.0000619183
 51
172.0000619183
  0
LINE
  5
19F
330
1F
100
AcDbEntity
  8
0
  6
Continuous
 62
     7
370
    25
100
AcDbLine
 10
-12.291859
 20
6.642366
 30
0.0
 11
-25.165344
 21
8.451617
 31
0.0
  0
ARC
  5
1A0
330
1F
100
AcDbEntity
  8
0
  6
Continuous
 62
     7
370
    25
100
AcDbCircle
 10
-12.361445
 20
6.147232
 30
0.0
 40
0.4999998893519878
100
AcDbArc
 50
352.0000619183
 51
82.0000619183
  0
LINE
  5
1A1
330
1F
100
AcDbEntity
  8
0
  6
Continuous
 62
     7
370
    25
100
AcDbLine
 10
72.080201
 20
0.913931
 30
0.0
 11
84.9536855544
 21
2.7231809374
 31
0.0
  0
ARC
  5
1A2
330
1F
100
AcDbEntity
  8
0
  6
Continuous
 62
     7
370
    25
100
AcDbCircle
 10
72.0106141378
 20
1.4090650194
 30
0.0
 40
0.500000028525006
100
AcDbArc
 50
187.9999380817
 51
278.00003561
  0
LINE
  5
1A3
330
1F
100
AcDbEntity
  8
0
  6
Continuous
 62
     7
370
    25
100
AcDbLine
 10
69.70623
 20
14.212963
 30
0.0
 11
71.51548
 21
1.339479
 31
0.0
  0
ARC
  5
1A4
330
1F
100
AcDbEntity
  8
0
  6
Continuous
 62
     7
370
    25
100
AcDbCircle
 10
70.201364
 20
14.28255
 30
0.0
 40
0.5000000285249964
100
AcDbArc
 50
98.000051558
 51
188.000051558
  0
LINE
  5
1A5
330
1F
100
AcDbEntity
  8
0
  6
Continuous
 62
     7
370
    25
100
AcDbLine
 10
83.005262
 20
16.586934
 30
0.0
 11
70.131777
 21
14.777684
 31
0.0
  0
ARC
  5
1A6
330
1F
100
AcDbEntity
  8
0
  6
Continuous
 62
     7
370
    25
100
AcDbCircle
 10
83.074849
 20
16.0918
 30
0.0
 40
0.5000000285249971
100
AcDbArc
 50
8.000051558
 51
98.000051558
  0
LINE
  5
1A7
330
1F
100
AcDbEntity
  8
0
  6
Continuous
 62
     7
370
    25
100
AcDbLine
 10
85.379233
 20
3.287902
 30
0.0
 11
83.569983
 21
16.161387
 31
0.0
  0
ARC
  5
1A8
330
1F
100
AcDbEntity
  8
0
  6
Continuous
 62
     7
370
    25
100
AcDbCircle
 10
84.884099
 20
3.218315
 30
0.0
 40
0.5000000285249929
100
AcDbArc
 50
278.0
 51
8.000051558
  0
LINE
  5
1A9
330
1F
100
AcDbEntity
  8
0
  6
Continuous
 62
     7
370
    25
100
AcDbLine
 10
78.011834
 20
21.489695
 30
0.0
 11
76.2025840626
 21
34.3631795544
 31
0.0
  0
ARC
  5
1AA
330
1F
100
AcDbEntity
  8
0
  6
Continuous
 62
     7
370
    25
100
AcDbCircle
 10
77.5167
 20
21.420108
 30
0.0
 40
0.5000000285250049
100
AcDbArc
 50
278.000051558
 51
8.000051558
  0
LINE
  5
1AB
330
1F
100
AcDbEntity
  8
0
  6
Continuous
 62
     7
370
    25
100
AcDbLine
 10
64.712802
 20
19.115724
 30
0.0
 11
77.586287
 21
20.924974
 31
0.0
  0
ARC
  5
1AC
330
1F
100
AcDbEntity
  8
0
  6
Continuous
 62
     7
370
    25
100
AcDbCircle
 10
64.643215
 20
19.610858
 30
0.0
 40
0.5000000285250019
100
AcDbArc
 50
187.9999380817
 51
278.000051558
  0
LINE
  5
1AD
330
1F
100
AcDbEntity
  8
0
  6
Continuous
 62
     7
370
    25
100
AcDbLine
 10
62.3388309656
 20
32.4147564495
 30
0.0
 11
64.1480808622
 21
19.5412719806
 31
0.0
  0
ARC
  5
1AE
330
1F
100
AcDbEntity
  8
0
  6
Continuous
 62
     7
370
    25
100
AcDbCircle
 10
62.8339650154
 20
32.4843428904
 30
0.0
 40
0.5000000000316992
100
AcDbArc
 50
97.9999380817
 51
187.9999873225
  0
LINE
  5
1AF
330
1F
100
AcDbEntity
  8
0
  6
Continuous
 62
     7
370
    25
100
AcDbLine
 10
75.637863
 20
34.788727
 30
0.0
 11
62.764379
 21
32.979477
 31
0.0
  0
ARC
  5
1B0
330
1F
100
AcDbEntity
  8
0
  6
Continuous
 62
     7
370
    25
100
AcDbCircle
 10
75.70745
 20
34.293593
 30
0.0
 40
0.5000000285250062
100
AcDbArc
 50
8.0
 51
98.000051558
  0
LINE
  5
1B1
330
1F
100
AcDbEntity
  8
0
  6
Continuous
 62
     7
370
    25
100
AcDbLine
 10
-24.3754094495
 20
-10.8966159656
 30
0.0
 11
-37.248894
 21
-9.087366
 31
0.0
  0
ARC
  5
1B2
330
1F
100
AcDbEntity
  8
0
  6
Continuous
 62
     7
370
    25
100
AcDbCircle
 10
-24.444996
 20
-11.39175
 30
0.0
 40
0.5000000000000111
100
AcDbArc
 50
352.0
 51
82.0
  0
LINE
  5
1B3
330
1F
100
AcDbEntity
  8
0
  6
Continuous
 62
     7
370
    25
100
AcDbLine
 10
-25.759112
 20
-24.334822
 30
0.0
 11
-23.9498619656
 21
-11.4613365505
 31
0.0
  0
ARC
  5
1B4
330
1F
100
AcDbEntity
  8
0
  6
Continuous
 62
     7
370
    25
100
AcDbCircle
 10
-26.254246
 20
-24.265235
 30
0.0
 40
0.5000000285250087
100
AcDbArc
 50
261.999948442
 51
351.999948442
  0
LINE
  5
1B5
330
1F
100
AcDbEntity
  8
0
  6
Continuous
 62
     7
370
    25
100
AcDbLine
 10
-39.1973175505
 20
-22.9511190344
 30
0.0
 11
-26.323833
 21
-24.760369
 31
0.0
  0
ARC
  5
1B6
330
1F
100
AcDbEntity
  8
0
  6
Continuous
 62
     7
370
    25
100
AcDbCircle
 10
-39.127731
 20
-22.455985
 30
0.0
 40
0.5000000000317132
100
AcDbArc
 50
172.0
 51
261.9999999982
  0
LINE
  5
1B7
330
1F
100
AcDbEntity
  8
0
  6
Continuous
 62
     7
370
    25
100
AcDbLine
 10
-37.813615
 20
-9.512913
 30
0.0
 11
-39.6228650344
 21
-22.3863984495
 31
0.0
  0
ARC
  5
1B8
330
1F
100
AcDbEntity
  8
0
  6
Continuous
 62
     7
370
    25
100
AcDbCircle
 10
-37.318481
 20
-9.5825
 30
0.0
 40
0.5000000285250016
100
AcDbArc
 50
81.999948442
 51
171.999948442
  0
LINE
  5
1B9
330
1F
100
AcDbEntity
  8
0
  6
Continuous
 62
     7
370
    25
100
AcDbLine
 10
40.28262
 20
16.1872
 30
0.0
 11
38.4733690344
 21
29.0606845505
 31
0.0
  0
ARC
  5
1BA
330
1F
100
AcDbEntity
  8
0
  6
Continuous
 62
     7
370
    25
100
AcDbCircle
 10
39.787486
 20
16.117613
 30
0.0
 40
0.5000000285250067
100
AcDbArc
 50
277.9999380817
 51
8.000051558
  0
LINE
  5
1BB
330
1F
100
AcDbEntity
  8
0
  6
Continuous
 62
     7
370
    25
100
AcDbLine
 10
26.9835870154
 20
13.8132288904
 30
0.0
 11
39.8570720194
 21
15.6224788622
 31
0.0
  0
ARC
  5
1BC
330
1F
100
AcDbEntity
  8
0
  6
Continuous
 62
     7
370
    25
100
AcDbCircle
 10
26.914001
 20
14.308363
 30
0.0
 40
0.5000000000286332
100
AcDbArc
 50
188.0
 51
277.9999380813
  0
LINE
  5
1BD
330
1F
100
AcDbEntity
  8
0
  6
Continuous
 62
     7
370
    25
100
AcDbLine
 10
24.6096169656
 20
27.1122614495
 30
0.0
 11
26.4188669656
 21
14.2387764495
 31
0.0
  0
ARC
  5
1BE
330
1F
100
AcDbEntity
  8
0
  6
Continuous
 62
     7
370
    25
100
AcDbCircle
 10
25.104751
 20
27.181848
 30
0.0
 40
0.5000000000000143
100
AcDbArc
 50
98.0
 51
188.0
  0
LINE
  5
1BF
330
1F
100
AcDbEntity
  8
0
  6
Continuous
 62
     7
370
    25
100
AcDbLine
 10
37.9086489846
 20
29.4862321096
 30
0.0
 11
25.0351644495
 21
27.6769820344
 31
0.0
  0
ARC
  5
1C0
330
1F
100
AcDbEntity
  8
0
  6
Continuous
 62
     7
370
    25
100
AcDbCircle
 10
37.978235
 20
28.991098
 30
0.0
 40
0.5000000000143205
100
AcDbArc
 50
8.0
 51
97.9999380813
  0
LINE
  5
1C1
330
1F
100
AcDbEntity
  8
0
  6
Continuous
 62
     7
370
    25
100
AcDbLine
 10
-90.274
 20
-2.525
 30
0.0
 11
-103.274
 21
-2.525
 31
0.0
  0
ARC
  5
1C2
330
1F
100
AcDbEntity
  8
0
  6
Continuous
 62
     7
370
    25
100
AcDbCircle
 10
-90.274
 20
-3.025
 30
0.0
 40
0.5000000000000004
100
AcDbArc
 50
0.0
 51
90.0
  0
LINE
  5
1C3
330
1F
100
AcDbEntity
  8
0
  6
Continuous
 62
     7
370
    25
100
AcDbLine
 10
-89.774
 20
-16.025
 30
0.0
 11
-89.774
 21
-3.025
 31
0.0
  0
ARC
  5
1C4
330
1F
100
AcDbEntity
  8
0
  6
Continuous
 62
     7
370
    25
100
AcDbCircle
 10
-90.274
 20
-16.025
 30
0.0
 40
0.5
100
AcDbArc
 50
270.0
 51
0.0
  0
LINE
  5
1C5
330
1F
100
AcDbEntity
  8
0
  6
Continuous
 62
     7
370
    25
100
AcDbLine
 10
-103.274
 20
-16.525
 30
0.0
 11
-90.274
 21
-16.525
 31
0.0
  0
ARC
  5
1C6
330
1F
100
AcDbEntity
  8
0
  6
Continuous
 62
     7
370
    25
100
AcDbCircle
 10
-103.274
 20
-16.025
 30
0.0
 40
0.5
100
AcDbArc
 50
180.0
 51
270.0
  0
LINE
  5
1C7
330
1F
100
AcDbEntity
  8
0
  6
Continuous
 62
     7
370
    25
100
AcDbLine
 10
-103.774
 20
-3.025
 30
0.0
 11
-103.774
 21
-16.025
 31
0.0
  0
ARC
  5
1C8
330
1F
100
AcDbEntity
  8
0
  6
Continuous
 62
     7
370
    25
100
AcDbCircle
 10
-103.274
 20
-3.025
 30
0.0
 40
0.5000000000000004
100
AcDbArc
 50
90.0
 51
180.0
  0
LINE
  5
1C9
330
1F
100
AcDbEntity
  8
0
  6
Continuous
 62
     7
370
    25
100
AcDbLine
 10
86.083
 20
21.575
 30
0.0
 11
99.083
 21
21.575
 31
0.0
  0
ARC
  5
1CA
330
1F
100
AcDbEntity
  8
0
  6
Continuous
 62
     7
370
    25
100
AcDbCircle
 10
86.083
 20
22.075
 30
0.0
 40
0.5
100
AcDbArc
 50
180.0
 51
270.0
  0
LINE
  5
1CB
330
1F
100
AcDbEntity
  8
0
  6
Continuous
 62
     7
370
    25
100
AcDbLine
 10
85.583
 20
35.075
 30
0.0
 11
85.583
 21
22.075
 31
0.0
  0
ARC
  5
1CC
330
1F
100
AcDbEntity
  8
0
  6
Continuous
 62
     7
370
    25
100
AcDbCircle
 10
86.083
 20
35.075
 30
0.0
 40
0.5
100
AcDbArc
 50
90.0
 51
180.0
  0
LINE
  5
1CD
330
1F
100
AcDbEntity
  8
0
  6
Continuous
 62
     7
370
    25
100
AcDbLine
 10
99.083
 20
35.575
 30
0.0
 11
86.083
 21
35.575
 31
0.0
  0
ARC
  5
1CE
330
1F
100
AcDbEntity
  8
0
  6
Continuous
 62
     7
370
    25
100
AcDbCircle
 10
99.083
 20
35.075
 30
0.0
 40
0.5
100
AcDbArc
 50
0.0
 51
90.0
  0
LINE
  5
1CF
330
1F
100
AcDbEntity
  8
0
  6
Continuous
 62
     7
370
    25
100
AcDbLine
 10
99.583
 20
22.075
 30
0.0
 11
99.583
 21
35.075
 31
0.0
  0
ARC
  5
1D0
330
1F
100
AcDbEntity
  8
0
  6
Continuous
 62
     7
370
    25
100
AcDbCircle
 10
99.083
 20
22.075
 30
0.0
 40
0.5
100
AcDbArc
 50
270.0
 51
0.0
  0
LINE
  5
1D1
330
1F
100
AcDbEntity
  8
0
  6
Continuous
 62
     7
370
    25
100
AcDbLine
 10
-104.89325
 20
21.575
 30
0.0
 11
-91.89325
 21
21.575
 31
0.0
  0
ARC
  5
1D2
330
1F
100
AcDbEntity
  8
0
  6
Continuous
 62
     7
370
    25
100
AcDbCircle
 10
-104.89325
 20
22.075
 30
0.0
 40
0.5
100
AcDbArc
 50
180.0
 51
270.0
  0
LINE
  5
1D3
330
1F
100
AcDbEntity
  8
0
  6
Continuous
 62
     7
370
    25
100
AcDbLine
 10
-105.39325
 20
35.075
 30
0.0
 11
-105.39325
 21
22.075
 31
0.0
  0
ARC
  5
1D4
330
1F
100
AcDbEntity
  8
0
  6
Continuous
 62
     7
370
    25
100
AcDbCircle
 10
-104.89325
 20
35.075
 30
0.0
 40
0.5000000000000142
100
AcDbArc
 50
90.0
 51
180.0
  0
LINE
  5
1D5
330
1F
100
AcDbEntity
  8
0
  6
Continuous
 62
     7
370
    25
100
AcDbLine
 10
-91.89325
 20
35.575
 30
0.0
 11
-104.89325
 21
35.575
 31
0.0
  0
ARC
  5
1D6
330
1F
100
AcDbEntity
  8
0
  6
Continuous
 62
     7
370
    25
100
AcDbCircle
 10
-91.89325
 20
35.075
 30
0.0
 40
0.5
100
AcDbArc
 50
0.0
 51
90.0
  0
LINE
  5
1D7
330
1F
100
AcDbEntity
  8
0
  6
Continuous
 62
     7
370
    25
100
AcDbLine
 10
-91.39325
 20
22.075
 30
0.0
 11
-91.39325
 21
35.075
 31
0.0
  0
ARC
  5
1D8
330
1F
100
AcDbEntity
  8
0
  6
Continuous
 62
     7
370
    25
100
AcDbCircle
 10
-91.89325
 20
22.075
 30
0.0
 40
0.5
100
AcDbArc
 50
270.0
 51
0.0
  0
LINE
  5
1D9
330
1F
100
AcDbEntity
  8
0
  6
Continuous
 62
     7
370
    25
100
AcDbLine
 10
-108.70325
 20
-35.575
 30
0.0
 11
-95.70325
 21
-35.575
 31
0.0
  0
ARC
  5
1DA
330
1F
100
AcDbEntity
  8
0
  6
Continuous
 62
     7
370
    25
100
AcDbCircle
 10
-108.70325
 20
-35.075
 30
0.0
 40
0.5
100
AcDbArc
 50
180.0
 51
270.0
  0
LINE
  5
1DB
330
1F
100
AcDbEntity
  8
0
  6
Continuous
 62
     7
370
    25
100
AcDbLine
 10
-109.20325
 20
-22.075
 30
0.0
 11
-109.20325
 21
-35.075
 31
0.0
  0
ARC
  5
1DC
330
1F
100
AcDbEntity
  8
0
  6
Continuous
 62
     7
370
    25
100
AcDbCircle
 10
-108.70325
 20
-22.075
 30
0.0
 40
0.5
100
AcDbArc
 50
90.0
 51
180.0
  0
LINE
  5
1DD
330
1F
100
AcDbEntity
  8
0
  6
Continuous
 62
     7
370
    25
100
AcDbLine
 10
-95.70325
 20
-21.575
 30
0.0
 11
-108.70325
 21
-21.575
 31
0.0
  0
ARC
  5
1DE
330
1F
100
AcDbEntity
  8
0
  6
Continuous
 62
     7
370
    25
100
AcDbCircle
 10
-95.70325
 20
-22.075
 30
0.0
 40
0.5
100
AcDbArc
 50
0.0
 51
90.0
  0
LINE
  5
1DF
330
1F
100
AcDbEntity
  8
0
  6
Continuous
 62
     7
370
    25
100
AcDbLine
 10
-95.20325
 20
-35.075
 30
0.0
 11
-95.20325
 21
-22.075
 31
0.0
  0
ARC
  5
1E0
330
1F
100
AcDbEntity
  8
0
  6
Continuous
 62
     7
370
    25
100
AcDbCircle
 10
-95.70325
 20
-35.075
 30
0.0
 40
0.5
100
AcDbArc
 50
270.0
 51
0.0
  0
LINE
  5
1E1
330
1F
100
AcDbEntity
  8
0
  6
Continuous
 62
     7
370
    25
100
AcDbLine
 10
89.03575
 20
-16.525
 30
0.0
 11
102.03575
 21
-16.525
 31
0.0
  0
ARC
  5
1E2
330
1F
100
AcDbEntity
  8
0
  6
Continuous
 62
     7
370
    25
100
AcDbCircle
 10
89.03575
 20
-16.025
 30
0.0
 40
0.5
100
AcDbArc
 50
180.0
 51
270.0
  0
LINE
  5
1E3
330
1F
100
AcDbEntity
  8
0
  6
Continuous
 62
     7
370
    25
100
AcDbLine
 10
88.53575
 20
-3.025
 30
0.0
 11
88.53575
 21
-16.025
 31
0.0
  0
ARC
  5
1E4
330
1F
100
AcDbEntity
  8
0
  6
Continuous
 62
     7
370
    25
100
AcDbCircle
 10
89.03575
 20
-3.025
 30
0.0
 40
0.5000000000000004
100
AcDbArc
 50
90.0
 51
180.0
  0
LINE
  5
1E5
330
1F
100
AcDbEntity
  8
0
  6
Continuous
 62
     7
370
    25
100
AcDbLine
 10
102.03575
 20
-2.525
 30
0.0
 11
89.03575
 21
-2.525
 31
0.0
  0
ARC
  5
1E6
330
1F
100
AcDbEntity
  8
0
  6
Continuous
 62
     7
370
    25
100
AcDbCircle
 10
102.03575
 20
-3.025
 30
0.0
 40
0.5
100
AcDbArc
 50
0.0
 51
90.0
  0
LINE
  5
1E7
330
1F
100
AcDbEntity
  8
0
  6
Continuous
 62
     7
370
    25
100
AcDbLine
 10
102.53575
 20
-16.025
 30
0.0
 11
102.53575
 21
-3.025
 31
0.0
  0
ARC
  5
1E8
330
1F
100
AcDbEntity
  8
0
  6
Continuous
 62
     7
370
    25
100
AcDbCircle
 10
102.03575
 20
-16.025
 30
0.0
 40
0.5
100
AcDbArc
 50
270.0
 51
0.0
  0
LINE
  5
1E9
330
1F
100
AcDbEntity
  8
0
  6
Continuous
 62
     7
370
    25
100
AcDbLine
 10
-105.179
 20
2.525
 30
0.0
 11
-92.179
 21
2.525
 31
0.0
  0
ARC
  5
1EA
330
1F
100
AcDbEntity
  8
0
  6
Continuous
 62
     7
370
    25
100
AcDbCircle
 10
-105.179
 20
3.025
 30
0.0
 40
0.5000000000000142
100
AcDbArc
 50
180.0
 51
270.0
  0
LINE
  5
1EB
330
1F
100
AcDbEntity
  8
0
  6
Continuous
 62
     7
370
    25
100
AcDbLine
 10
-105.679
 20
16.025
 30
0.0
 11
-105.679
 21
3.025
 31
0.0
  0
ARC
  5
1EC
330
1F
100
AcDbEntity
  8
0
  6
Continuous
 62
     7
370
    25
100
AcDbCircle
 10
-105.179
 20
16.025
 30
0.0
 40
0.5
100
AcDbArc
 50
90.0
 51
180.0
  0
LINE
  5
1ED
330
1F
100
AcDbEntity
  8
0
  6
Continuous
 62
     7
370
    25
100
AcDbLine
 10
-92.179
 20
16.525
 30
0.0
 11
-105.179
 21
16.525
 31
0.0
  0
ARC
  5
1EE
330
1F
100
AcDbEntity
  8
0
  6
Continuous
 62
     7
370
    25
100
AcDbCircle
 10
-92.179
 20
16.025
 30
0.0
 40
0.5
100
AcDbArc
 50
0.0
 51
90.0
  0
LINE
  5
1EF
330
1F
100
AcDbEntity
  8
0
  6
Continuous
 62
     7
370
    25
100
AcDbLine
 10
-91.679
 20
3.025
 30
0.0
 11
-91.679
 21
16.025
 31
0.0
  0
ARC
  5
1F0
330
1F
100
AcDbEntity
  8
0
  6
Continuous
 62
     7
370
    25
100
AcDbCircle
 10
-92.179
 20
3.025
 30
0.0
 40
0.4999999999999885
100
AcDbArc
 50
270.0
 51
0.0
  0
ENDSEC
  0
SECTION
  2
OBJECTS
  0
DICTIONARY
  5
C
330
0
100
AcDbDictionary
281
     1
  3
ACAD_GROUP
350
D
  3
ACAD_LAYOUT
350
1A
  3
ACAD_MLINESTYLE
350
17
  3
ACAD_PLOTSETTINGS
350
19
  3
ACAD_PLOTSTYLENAME
350
E
  3
ACAD_SCALELIST
350
47
  3
DWGPROPS
350
1F1
  0
DICTIONARY
  5
D
102
{ACAD_REACTORS
330
C
102
}
330
C
100
AcDbDictionary
281
     1
  0
DICTIONARY
  5
1A
102
{ACAD_REACTORS
330
C
102
}
330
C
100
AcDbDictionary
281
     1
  3
Layout1
350
1E
  3
Layout2
350
26
  3
Model
350
22
  0
DICTIONARY
  5
17
102
{ACAD_REACTORS
330
C
102
}
330
C
100
AcDbDictionary
281
     1
  3
Standard
350
18
  0
DICTIONARY
  5
19
102
{ACAD_REACTORS
330
C
102
}
330
C
100
AcDbDictionary
281
     1
  0
ACDBDICTIONARYWDFLT
  5
E
102
{ACAD_REACTORS
330
C
102
}
330
C
100
AcDbDictionary
281
     1
  3
Normal
350
F
100
AcDbDictionaryWithDefault
340
F
  0
DICTIONARY
  5
47
102
{ACAD_REACTORS
330
C
102
}
330
C
100
AcDbDictionary
281
     1
  3
A0
350
48
  3
A1
350
49
  3
A2
350
4A
  3
A3
350
4B
  3
A4
350
4C
  3
A5
350
4D
  3
A6
350
4E
  3
A7
350
4F
  3
A8
350
50
  3
A9
350
51
  3
B0
350
52
  3
B1
350
53
  3
B2
350
54
  3
B3
350
55
  3
B4
350
56
  3
B5
350
57
  3
B6
350
58
  3
B7
350
59
  3
B8
350
5A
  3
B9
350
5B
  3
C0
350
5C
  3
C1
350
5D
  3
C2
350
5E
  3
C3
350
5F
  3
C4
350
60
  3
C5
350
61
  3
C6
350
62
  3
C7
350
63
  3
C8
350
64
  3
C9
350
65
  3
D0
350
66
  3
D1
350
67
  3
D2
350
68
  0
XRECORD
  5
1F1
102
{ACAD_REACTORS
330
C
102
}
330
C
100
AcDbXrecord
280
     1
  1
DWGPROPS COOKIE
  2

  3

  4

  6

  7

  8
blewis
  9

300
=
301
=
302
=
303
=
304
=
305
=
306
=
307
=
308
=
309
=
 40
0.0
 41
2459538.667630417
 42
2459538.667747639
  1

 90
        0
  0
LAYOUT
  5
1E
102
{ACAD_REACTORS
330
1A
102
}
330
1A
100
AcDbPlotSettings
  1

  2
none_device
  4

  6

 40
0.0
 41
0.0
 42
0.0
 43
0.0
 44
0.0
 45
0.0
 46
0.0
 47
0.0
 48
0.0
 49
0.0
140
0.0
141
0.0
142
1.0
143
1.0
 70
   688
 72
     1
 73
     0
 74
     5
  7

 75
    16
147
1.0
148
0.0
149
0.0
100
AcDbLayout
  1
Layout1
 70
     1
 71
     1
 10
0.0
 20
0.0
 11
420.0
 21
297.0
 12
0.0
 22
0.0
 32
0.0
 14
1.0000000000E+20
 24
1.0000000000E+20
 34
1.0000000000E+20
 15
-1.0000000000E+20
 25
-1.0000000000E+20
 35
-1.0000000000E+20
146
0.0
 13
0.0
 23
0.0
 33
0.0
 16
1.0
 26
0.0
 36
0.0
 17
0.0
 27
1.0
 37
0.0
 76
     0
330
1B
  0
LAYOUT
  5
26
102
{ACAD_REACTORS
330
1A
102
}
330
1A
100
AcDbPlotSettings
  1

  2
none_device
  4

  6

 40
0.0
 41
0.0
 42
0.0
 43
0.0
 44
0.0
 45
0.0
 46
0.0
 47
0.0
 48
0.0
 49
0.0
140
0.0
141
0.0
142
1.0
143
1.0
 70
   688
 72
     1
 73
     0
 74
     5
  7

 75
    16
147
1.0
148
0.0
149
0.0
100
AcDbLayout
  1
Layout2
 70
     1
 71
     2
 10
0.0
 20
0.0
 11
0.0
 21
0.0
 12
0.0
 22
0.0
 32
0.0
 14
0.0
 24
0.0
 34
0.0
 15
0.0
 25
0.0
 35
0.0
146
0.0
 13
0.0
 23
0.0
 33
0.0
 16
1.0
 26
0.0
 36
0.0
 17
0.0
 27
1.0
 37
0.0
 76
     0
330
23
  0
LAYOUT
  5
22
102
{ACAD_REACTORS
330
1A
102
}
330
1A
100
AcDbPlotSettings
  1

  2
none_device
  4
ANSI_A_(11.00_x_8.50_Inches)
  6

 40
6.35
 41
19.05
 42
6.35000508
 43
19.05000254
 44
279.4
 45
215.9
 46
135.4901381929
 47
94.5028136598
 48
0.0
 49
0.0
140
0.0
141
0.0
142
0.0471766569
143
1.0
 70
  1696
 72
     0
 73
     0
 74
     0
  7

 75
     0
147
0.0179189148
148
-1300.4909072572
149
0.0
100
AcDbLayout
  1
Model
 70
     1
 71
     0
 10
0.0
 20
0.0
 11
420.0
 21
297.0
 12
0.0
 22
0.0
 32
0.0
 14
-117.20325
 24
-56.4263733102
 34
0.0
 15
113.63125
 25
47.075
 35
0.0
146
0.0
 13
0.0
 23
0.0
 33
0.0
 16
1.0
 26
0.0
 36
0.0
 17
0.0
 27
1.0
 37
0.0
 76
     0
330
1F
331
29
  0
MLINESTYLE
  5
18
102
{ACAD_REACTORS
330
17
102
}
330
17
100
AcDbMlineStyle
  2
Standard
 70
     0
  3

 62
   256
 51
90.0
 52
90.0
 71
     2
 49
0.5
 62
   256
  6
BYLAYER
 49
-0.5
 62
   256
  6
BYLAYER
  0
ACDBPLACEHOLDER
  5
F
102
{ACAD_REACTORS
330
E
102
}
330
E
  0
SCALE
  5
48
102
{ACAD_REACTORS
330
47
102
}
330
47
100
AcDbScale
 70
     0
300
1:1
140
1.0
141
1.0
290
     1
  0
SCALE
  5
49
102
{ACAD_REACTORS
330
47
102
}
330
47
100
AcDbScale
 70
     0
300
1:2
140
1.0
141
2.0
290
     0
  0
SCALE
  5
4A
102
{ACAD_REACTORS
330
47
102
}
330
47
100
AcDbScale
 70
     0
300
1:4
140
1.0
141
4.0
290
     0
  0
SCALE
  5
4B
102
{ACAD_REACTORS
330
47
102
}
330
47
100
AcDbScale
 70
     0
300
1:5
140
1.0
141
5.0
290
     0
  0
SCALE
  5
4C
102
{ACAD_REACTORS
330
47
102
}
330
47
100
AcDbScale
 70
     0
300
1:8
140
1.0
141
8.0
290
     0
  0
SCALE
  5
4D
102
{ACAD_REACTORS
330
47
102
}
330
47
100
AcDbScale
 70
     0
300
1:10
140
1.0
141
10.0
290
     0
  0
SCALE
  5
4E
102
{ACAD_REACTORS
330
47
102
}
330
47
100
AcDbScale
 70
     0
300
1:16
140
1.0
141
16.0
290
     0
  0
SCALE
  5
4F
102
{ACAD_REACTORS
330
47
102
}
330
47
100
AcDbScale
 70
     0
300
1:20
140
1.0
141
20.0
290
     0
  0
SCALE
  5
50
102
{ACAD_REACTORS
330
47
102
}
330
47
100
AcDbScale
 70
     0
300
1:30
140
1.0
141
30.0
290
     0
  0
SCALE
  5
51
102
{ACAD_REACTORS
330
47
102
}
330
47
100
AcDbScale
 70
     0
300
1:40
140
1.0
141
40.0
290
     0
  0
SCALE
  5
52
102
{ACAD_REACTORS
330
47
102
}
330
47
100
AcDbScale
 70
     0
300
1:50
140
1.0
141
50.0
290
     0
  0
SCALE
  5
53
102
{ACAD_REACTORS
330
47
102
}
330
47
100
AcDbScale
 70
     0
300
1:100
140
1.0
141
100.0
290
     0
  0
SCALE
  5
54
102
{ACAD_REACTORS
330
47
102
}
330
47
100
AcDbScale
 70
     0
300
2:1
140
2.0
141
1.0
290
     0
  0
SCALE
  5
55
102
{ACAD_REACTORS
330
47
102
}
330
47
100
AcDbScale
 70
     0
300
4:1
140
4.0
141
1.0
290
     0
  0
SCALE
  5
56
102
{ACAD_REACTORS
330
47
102
}
330
47
100
AcDbScale
 70
     0
300
8:1
140
8.0
141
1.0
290
     0
  0
SCALE
  5
57
102
{ACAD_REACTORS
330
47
102
}
330
47
100
AcDbScale
 70
     0
300
10:1
140
10.0
141
1.0
290
     0
  0
SCALE
  5
58
102
{ACAD_REACTORS
330
47
102
}
330
47
100
AcDbScale
 70
     0
300
100:1
140
100.0
141
1.0
290
     0
  0
SCALE
  5
59
102
{ACAD_REACTORS
330
47
102
}
330
47
100
AcDbScale
 70
     0
300
1/128" = 1'-0"
140
0.0078125
141
12.0
290
     0
  0
SCALE
  5
5A
102
{ACAD_REACTORS
330
47
102
}
330
47
100
AcDbScale
 70
     0
300
1/64" = 1'-0"
140
0.015625
141
12.0
290
     0
  0
SCALE
  5
5B
102
{ACAD_REACTORS
330
47
102
}
330
47
100
AcDbScale
 70
     0
300
1/32" = 1'-0"
140
0.03125
141
12.0
290
     0
  0
SCALE
  5
5C
102
{ACAD_REACTORS
330
47
102
}
330
47
100
AcDbScale
 70
     0
300
1/16" = 1'-0"
140
0.0625
141
12.0
290
     0
  0
SCALE
  5
5D
102
{ACAD_REACTORS
330
47
102
}
330
47
100
AcDbScale
 70
     0
300
3/32" = 1'-0"
140
0.09375
141
12.0
290
     0
  0
SCALE
  5
5E
102
{ACAD_REACTORS
330
47
102
}
330
47
100
AcDbScale
 70
     0
300
1/8" = 1'-0"
140
0.125
141
12.0
290
     0
  0
SCALE
  5
5F
102
{ACAD_REACTORS
330
47
102
}
330
47
100
AcDbScale
 70
     0
300
3/16" = 1'-0"
140
0.1875
141
12.0
290
     0
  0
SCALE
  5
60
102
{ACAD_REACTORS
330
47
102
}
330
47
100
AcDbScale
 70
     0
300
1/4" = 1'-0"
140
0.25
141
12.0
290
     0
  0
SCALE
  5
61
102
{ACAD_REACTORS
330
47
102
}
330
47
100
AcDbScale
 70
     0
300
3/8" = 1'-0"
140
0.375
141
12.0
290
     0
  0
SCALE
  5
62
102
{ACAD_REACTORS
330
47
102
}
330
47
100
AcDbScale
 70
     0
300
1/2" = 1'-0"
140
0.5
141
12.0
290
     0
  0
SCALE
  5
63
102
{ACAD_REACTORS
330
47
102
}
330
47
100
AcDbScale
 70
     0
300
3/4" = 1'-0"
140
0.75
141
12.0
290
     0
  0
SCALE
  5
64
102
{ACAD_REACTORS
330
47
102
}
330
47
100
AcDbScale
 70
     0
300
1" = 1'-0"
140
1.0
141
12.0
290
     0
  0
SCALE
  5
65
102
{ACAD_REACTORS
330
47
102
}
330
47
100
AcDbScale
 70
     0
300
1-1/2" = 1'-0"
140
1.5
141
12.0
290
     0
  0
SCALE
  5
66
102
{ACAD_REACTORS
330
47
102
}
330
47
100
AcDbScale
 70
     0
300
3" = 1'-0"
140
3.0
141
12.0
290
     0
  0
SCALE
  5
67
102
{ACAD_REACTORS
330
47
102
}
330
47
100
AcDbScale
 70
     0
300
6" = 1'-0"
140
6.0
141
12.0
290
     0
  0
SCALE
  5
68
102
{ACAD_REACTORS
330
47
102
}
330
47
100
AcDbScale
 70
     0
300
1'-0" = 1'-0"
140
12.0
141
12.0
290
     0
  0
ENDSEC
  0
EOF
